<svg width="24" height="24" viewBox="0 0 24 24" fill="none" xmlns="http://www.w3.org/2000/svg">
<path fill-rule="evenodd" clip-rule="evenodd" d="M8 4.5H16C17.933 4.5 19.5 6.067 19.5 8V11.1213C19.5 11.1643 19.4992 11.2072 19.4976 11.25H17C13.8244 11.25 11.25 13.8244 11.25 17V19.5H8C6.067 19.5 4.5 17.933 4.5 16V8C4.5 6.067 6.067 4.5 8 4.5ZM12.75 19.3484C13.3689 19.1601 13.9303 18.8018 14.3652 18.3048L18.634 13.4261C18.8159 13.2182 18.9712 12.9911 19.098 12.75H17C14.6528 12.75 12.75 14.6528 12.75 17V19.3484ZM16 3H8C5.23858 3 3 5.23858 3 8V16C3 18.7614 5.23858 21 8 21H11.7312C13.173 21 14.5446 20.3776 15.494 19.2925L19.7629 14.4138C20.5604 13.5024 21 12.3324 21 11.1213V8C21 5.23858 18.7614 3 16 3Z" fill="#007AFF"/>
</svg>
