<svg width="24" height="24" viewBox="0 0 24 24" fill="none" xmlns="http://www.w3.org/2000/svg">
<path d="M8.87926 6.23916L6.79599 3.89549C6.30593 3.34418 5.53358 3.0864 4.90183 3.46718C4.56672 3.66917 4.24875 3.91304 3.95464 4.17368C2.4855 5.4756 2.17067 7.58299 2.87001 9.4172C3.6023 11.3379 4.87967 13.8797 7 16C10.3395 19.3395 14 21 17 21C18.8955 21 20.292 20.0643 20.7953 18.932C21.0421 18.3768 20.7238 17.7791 20.2494 17.3995L17.2494 14.9995C16.519 14.4152 15.481 14.4152 14.7506 14.9995L14.0374 15.5701C13.7137 15.829 13.2621 15.8629 12.9101 15.644C10.603 14.2092 9.47384 12.948 8.27452 10.5625C8.10262 10.2206 8.15173 9.81034 8.3908 9.5115L8.94618 8.81728C9.55491 8.05636 9.52665 6.96748 8.87926 6.23916Z" stroke="#007AFF" stroke-width="1.5"/>
</svg>
