<svg width="24" height="24" viewBox="0 0 24 24" fill="none" xmlns="http://www.w3.org/2000/svg">
<path fill-rule="evenodd" clip-rule="evenodd" d="M9.19354 4.53576C9.38337 4.06119 9.843 3.75 10.3541 3.75H13.646C14.1571 3.75 14.6168 4.06119 14.8066 4.53576L15.3037 5.77854C15.4176 6.06329 15.6934 6.25 16.0001 6.25H18C19.7949 6.25 21.25 7.70507 21.25 9.5V16.5C21.25 18.2949 19.7949 19.75 18 19.75H6C4.20507 19.75 2.75 18.2949 2.75 16.5V9.5C2.75 7.70508 4.20508 6.25 6 6.25H8.00007C8.30675 6.25 8.58253 6.06329 8.69643 5.77854L9.19354 4.53576ZM10.3541 2.25C9.22965 2.25 8.21845 2.93462 7.80082 3.97868L7.49229 4.75H6C3.37665 4.75 1.25 6.87665 1.25 9.5V16.5C1.25 19.1234 3.37665 21.25 6 21.25H18C20.6234 21.25 22.75 19.1234 22.75 16.5V9.5C22.75 6.87665 20.6234 4.75 18 4.75H16.5078L16.1993 3.97868C15.7817 2.93461 14.7705 2.25 13.646 2.25H10.3541ZM15.5 12.25C15.5 14.183 13.933 15.75 12 15.75C10.067 15.75 8.5 14.183 8.5 12.25C8.5 10.317 10.067 8.75 12 8.75C13.933 8.75 15.5 10.317 15.5 12.25ZM17 12.25C17 15.0114 14.7614 17.25 12 17.25C9.23858 17.25 7 15.0114 7 12.25C7 9.48858 9.23858 7.25 12 7.25C14.7614 7.25 17 9.48858 17 12.25Z" fill="#007AFF"/>
</svg>
