<svg width="50" height="50" viewBox="0 0 50 50" fill="none" xmlns="http://www.w3.org/2000/svg">
<path d="M30.6665 9.61012L44.627 32.8622C46.6332 36.2018 45.6478 40.5955 42.4249 42.6747C41.3432 43.3751 40.0823 43.7484 38.7936 43.7497H10.8707C7.07696 43.7497 3.99988 40.5622 3.99988 36.6268C3.99988 35.2955 4.36029 33.9935 5.03738 32.8622L18.9999 9.61012C21.004 6.27054 25.2415 5.24762 28.4645 7.32679C29.3561 7.90179 30.1103 8.68304 30.6665 9.61012ZM26.0415 11.358C25.7865 11.194 25.5008 11.0833 25.2018 11.0328C24.9028 10.9822 24.5967 10.9928 24.3019 11.0639C24.0071 11.1349 23.7297 11.265 23.4866 11.4463C23.2435 11.6276 23.0396 11.8562 22.8874 12.1185L8.92696 35.3747C8.70019 35.7537 8.58065 36.1872 8.58113 36.6289C8.58113 37.9414 9.60613 39.0039 10.8728 39.0039H38.7915C39.2207 39.0039 39.6395 38.8789 40.002 38.6455C40.5221 38.2999 40.8889 37.767 41.0259 37.1577C41.1629 36.5484 41.0596 35.9097 40.7374 35.3747L26.777 12.1185C26.5939 11.8123 26.343 11.5521 26.0436 11.358H26.0415ZM24.8332 35.4164C24.2807 35.4164 23.7508 35.1969 23.3601 34.8062C22.9694 34.4155 22.7499 33.8856 22.7499 33.333C22.7499 32.7805 22.9694 32.2506 23.3601 31.8599C23.7508 31.4692 24.2807 31.2497 24.8332 31.2497C25.3857 31.2497 25.9156 31.4692 26.3063 31.8599C26.6971 32.2506 26.9165 32.7805 26.9165 33.333C26.9165 33.8856 26.6971 34.4155 26.3063 34.8062C25.9156 35.1969 25.3857 35.4164 24.8332 35.4164ZM24.8332 16.6664C25.3857 16.6664 25.9156 16.8859 26.3063 17.2766C26.6971 17.6673 26.9165 18.1972 26.9165 18.7497V27.083C26.9165 27.6356 26.6971 28.1655 26.3063 28.5562C25.9156 28.9469 25.3857 29.1664 24.8332 29.1664C24.2807 29.1664 23.7508 28.9469 23.3601 28.5562C22.9694 28.1655 22.7499 27.6356 22.7499 27.083V18.7497C22.7499 18.1972 22.9694 17.6673 23.3601 17.2766C23.7508 16.8859 24.2807 16.6664 24.8332 16.6664Z" fill="#FF0303"/>
</svg>
