<svg width="50" height="50" viewBox="0 0 50 50" fill="none" xmlns="http://www.w3.org/2000/svg">
<g clip-path="url(#clip0_81_556)">
<path d="M50 25C50 11.1914 38.8086 0 25 0C11.1914 0 0 11.1914 0 25C0 37.4795 9.13672 47.8223 21.0957 49.6982V32.2324H14.7529V25H21.0957V19.4932C21.0957 13.2324 24.8213 9.76758 30.5342 9.76758C33.2734 9.76758 36.1367 10.2607 36.1367 10.2607V16.4111H32.9863C29.877 16.4111 28.918 18.3428 28.918 20.3154V25H35.8496L34.7402 32.2324H28.918V49.6982C40.8633 47.8223 50 37.4795 50 25Z" fill="#1877F2"/>
<path d="M34.7256 32.2324L35.8359 25H28.9043V20.3154C28.9043 18.3428 29.877 16.4111 32.9727 16.4111H36.123V10.2607C36.123 10.2607 33.2598 9.76758 30.5205 9.76758C24.8086 9.76758 21.082 13.2334 21.082 19.4932V25H14.7393V32.2324H21.082V49.6982C22.3564 49.9033 23.6572 50 24.9863 50C26.3154 50 27.6162 49.8906 28.8906 49.6982V32.2324H34.7256Z" fill="white"/>
</g>
<rect x="1" y="1" width="48" height="48" rx="24" stroke="white" stroke-width="2"/>
<defs>
<clipPath id="clip0_81_556">
<rect width="50" height="50" rx="25" fill="white"/>
</clipPath>
</defs>
</svg>
