<svg width="569" height="423" viewBox="0 0 569 423" fill="none" xmlns="http://www.w3.org/2000/svg">
<g clip-path="url(#clip0_81_502)">
<path d="M212.779 71.0985C229.508 85.0977 248.158 73.3773 266.032 72.4818C274.322 72.0665 282.594 74.065 290.764 75.5559C298.518 76.971 306.244 79.0292 313.333 82.5393C321.06 86.2311 327.633 91.9625 332.342 99.1152C333.277 100.577 334.688 99.4976 334.677 97.75C334.565 79.1923 326.542 80.695 318.164 82.0637C310.2 83.3648 303.43 75.4612 295.571 73.7603C287.347 72.1054 279.035 70.9209 270.676 70.2125C261.614 69.3128 252.53 68.7023 243.423 68.3812C233.212 68.021 222.997 68.0252 212.779 68.3936C211.043 68.4553 211.035 71.1605 212.779 71.0985L212.779 71.0985Z" fill="#3F3D56"/>
<path d="M156.351 220.39C156.59 220.647 156.72 220.986 156.714 221.336C156.708 221.687 156.566 222.021 156.318 222.269C156.07 222.517 155.736 222.658 155.386 222.665C155.035 222.671 154.696 222.541 154.44 222.302C143.386 212.826 132.332 203.356 121.278 193.892C121.265 193.877 121.25 193.865 121.233 193.856C120.465 193.279 119.739 192.65 119.06 191.971C108.772 190.772 97.4661 186.805 86.7547 185.083C77.2966 186.489 67.8657 188.166 58.3805 189.411C50.1164 190.559 41.7849 191.156 33.4414 191.196C26.6522 191.16 28.6164 173.755 22.4583 170.545C16.0567 167.209 3.21882 178.005 1.57785 171.261C0.767083 167.808 0.239382 164.295 0 160.757V138.766C0.87458 129.191 16.1198 132.145 23.3599 125.464C34.2245 115.437 37.9135 91.9175 51.8166 91.638C68.385 91.2884 84.9587 92.0143 101.433 93.8109C114.867 95.2895 128.996 96.7231 141.42 102.448C146.749 104.91 151.771 119.147 155.441 123.772C159.629 129.175 161.999 135.765 162.212 142.598C162.87 157.105 156.27 170.377 152.655 184.073C149.517 195.929 147.75 210.301 156.351 220.39Z" fill="#F2F2F2"/>
<path d="M122.534 195.281C133.741 204.887 144.949 214.491 156.159 224.093C156.416 224.332 156.755 224.462 157.106 224.456C157.457 224.45 157.791 224.308 158.039 224.06C158.287 223.812 158.429 223.477 158.435 223.127C158.441 222.776 158.311 222.437 158.072 222.18C149.471 212.098 151.238 197.726 154.374 185.863C157.994 172.166 164.593 158.899 163.933 144.395C163.723 137.561 161.352 130.968 157.16 125.567C153.37 121.021 148.57 117.425 143.143 115.064C130.719 109.339 116.593 107.899 103.153 106.424C86.6804 104.626 70.1087 103.899 53.5421 104.248C39.6349 104.534 23.3665 104.788 12.5026 114.817C2.6087 123.951 1.25735 138.314 1.35276 150.995C1.40803 158.342 1.54898 165.888 3.29555 173.059C4.93737 179.799 8.49778 186.364 14.9014 189.699C21.0607 192.907 28.3782 192.957 35.1611 192.989C43.5045 192.954 51.836 192.356 60.0989 191.2C76.6367 189.037 93.0165 185.542 109.688 184.487C113.768 184.228 117.86 184.113 121.947 184.199C123.688 184.235 123.688 181.53 121.947 181.494C105.737 181.155 89.6937 183.939 73.7446 186.474C58.3181 188.926 42.5481 191.237 26.8896 189.997C23.457 189.836 20.0818 189.055 16.9274 187.692C13.8808 186.244 11.303 183.969 9.48866 181.125C5.41217 174.777 4.6398 166.824 4.28767 159.418C3.88596 153.008 3.94546 146.578 4.4657 140.177C5.06648 133.97 6.51329 127.675 9.81824 122.316C17.357 110.094 32.5993 105.008 45.608 107.204C60.2571 109.676 71.4625 121.386 93.8161 108.227C100.833 104.096 110.028 109.844 118.079 111.059C124.097 111.889 130.032 113.232 135.82 115.074C141.389 116.774 146.578 119.532 151.102 123.197C155.837 127.202 159.134 132.645 160.489 138.696C163.594 152.633 157.44 166.544 153.373 179.586C149.748 191.211 146.656 204.865 151.537 216.596C152.675 219.322 154.235 221.852 156.159 224.093L158.072 222.18C146.865 212.575 135.657 202.971 124.447 193.368C123.132 192.241 121.21 194.146 122.534 195.281H122.534Z" fill="#E6E6E6"/>
<path d="M74.7813 132.348H34.0091C33.635 132.348 33.2762 132.199 33.0117 131.935C32.7471 131.67 32.5985 131.311 32.5985 130.937C32.5985 130.563 32.7471 130.204 33.0117 129.94C33.2762 129.675 33.635 129.527 34.0091 129.527H74.7813C75.1555 129.527 75.5143 129.675 75.7788 129.94C76.0434 130.204 76.192 130.563 76.192 130.937C76.192 131.311 76.0434 131.67 75.7788 131.935C75.5143 132.199 75.1555 132.348 74.7813 132.348Z" fill="white"/>
<path d="M74.7813 162.429H34.0091C33.8239 162.429 33.6405 162.393 33.4693 162.322C33.2982 162.251 33.1426 162.147 33.0117 162.016C32.8807 161.885 32.7768 161.73 32.7059 161.558C32.635 161.387 32.5985 161.204 32.5985 161.019C32.5985 160.833 32.635 160.65 32.7059 160.479C32.7768 160.308 32.8807 160.152 33.0117 160.021C33.1426 159.89 33.2982 159.786 33.4693 159.715C33.6405 159.645 33.8239 159.608 34.0091 159.608H74.7813C75.1555 159.608 75.5143 159.757 75.7788 160.021C76.0434 160.286 76.192 160.645 76.192 161.019C76.192 161.393 76.0434 161.752 75.7788 162.016C75.5143 162.281 75.1555 162.429 74.7813 162.429Z" fill="white"/>
<path d="M107.895 147.398H34.0091C33.635 147.398 33.2762 147.25 33.0117 146.985C32.7471 146.721 32.5985 146.362 32.5985 145.988C32.5985 145.614 32.7471 145.255 33.0117 144.99C33.2762 144.726 33.635 144.577 34.0091 144.577H107.895C108.269 144.577 108.628 144.726 108.892 144.99C109.157 145.255 109.305 145.614 109.305 145.988C109.305 146.362 109.157 146.721 108.892 146.985C108.628 147.25 108.269 147.398 107.895 147.398Z" fill="white"/>
<path d="M201.433 288.914C201.672 289.171 201.802 289.51 201.796 289.86C201.789 290.21 201.647 290.545 201.4 290.793C201.152 291.04 200.818 291.182 200.467 291.188C200.117 291.195 199.778 291.065 199.521 290.826C188.467 281.35 177.413 271.879 166.359 262.415C166.347 262.401 166.331 262.388 166.314 262.379C165.547 261.803 164.821 261.173 164.141 260.495C153.854 259.296 142.547 255.329 131.836 253.606C122.378 255.013 111.144 265.706 101.659 266.951C93.3945 268.099 85.063 268.696 76.7195 268.736C69.9303 268.7 71.8945 246.787 65.7364 243.577C59.3348 240.241 48.3002 246.529 46.6592 239.785C45.8207 236.349 41.6806 232.824 41.4102 229.281V207.29C42.2847 197.715 48.6248 188.229 55.8649 181.548C66.7295 171.522 82.9948 171.261 96.898 170.981C113.466 170.632 130.04 171.358 146.515 173.154C159.949 174.633 174.077 176.066 186.502 181.792C191.929 184.154 196.73 187.751 200.522 192.296C204.71 197.699 207.08 204.289 207.293 211.122C207.952 225.629 201.352 238.901 197.736 252.597C194.598 264.453 192.831 278.825 201.433 288.914Z" fill="#F2F2F2"/>
<path d="M167.616 263.805C178.822 273.411 190.031 283.015 201.241 292.617C201.497 292.856 201.837 292.986 202.187 292.98C202.538 292.974 202.873 292.832 203.121 292.584C203.368 292.336 203.511 292.001 203.517 291.651C203.523 291.3 203.393 290.961 203.153 290.704C194.552 280.622 196.32 266.25 199.455 254.387C203.075 240.69 209.675 227.423 209.014 212.919C208.805 206.084 206.433 199.492 202.241 194.09C198.451 189.545 193.651 185.948 188.224 183.588C175.8 177.863 161.675 176.423 148.234 174.948C131.762 173.15 115.19 172.423 98.6235 172.772C84.7163 173.058 68.4479 173.312 57.584 183.341C47.6901 192.474 46.3388 206.838 46.4342 219.519C46.4894 226.866 46.6304 234.412 48.377 241.582C50.0188 248.322 53.5792 254.887 59.9828 258.222C66.1421 261.43 73.4596 261.481 80.2425 261.513C88.5859 261.478 96.9174 260.88 105.18 259.723C121.718 257.56 138.098 254.066 154.769 253.01C158.849 252.752 162.941 252.637 167.029 252.722C168.77 252.759 168.77 250.054 167.029 250.017C150.819 249.679 134.775 252.462 118.826 254.998C103.4 257.45 87.6295 259.761 71.9711 258.521C68.5384 258.36 65.1632 257.579 62.0088 256.216C58.9622 254.768 56.3844 252.492 54.5701 249.649C50.4936 243.301 49.7212 235.348 49.3691 227.942C48.9674 221.532 49.0269 215.102 49.5471 208.7C50.1479 202.494 51.5947 196.198 54.8997 190.84C62.4384 178.618 79.6255 168.541 90.6894 175.727C103.33 183.937 119.497 184.292 138.897 176.75C146.487 173.8 155.109 178.368 163.161 179.583C169.178 180.412 175.113 181.756 180.901 183.598C186.47 185.297 191.659 188.055 196.183 191.721C200.919 195.726 204.215 201.168 205.571 207.22C208.675 221.157 202.521 235.068 198.455 248.11C194.83 259.735 191.737 273.389 196.618 285.12C197.756 287.846 199.316 290.376 201.241 292.617L203.153 290.704C191.947 281.098 180.738 271.494 169.528 261.892C168.213 260.765 166.291 262.67 167.616 263.805H167.616Z" fill="#E6E6E6"/>
<path d="M119.863 200.872H79.0906C78.7164 200.872 78.3576 200.723 78.0931 200.458C77.8285 200.194 77.6799 199.835 77.6799 199.461C77.6799 199.087 77.8285 198.728 78.0931 198.463C78.3576 198.199 78.7164 198.05 79.0906 198.05H119.863C120.237 198.05 120.596 198.199 120.86 198.463C121.125 198.728 121.273 199.087 121.273 199.461C121.273 199.835 121.125 200.194 120.86 200.458C120.596 200.723 120.237 200.872 119.863 200.872Z" fill="white"/>
<path d="M119.863 230.953H79.0906C78.7164 230.953 78.3576 230.804 78.0931 230.54C77.8285 230.275 77.6799 229.917 77.6799 229.542C77.6799 229.168 77.8285 228.81 78.0931 228.545C78.3576 228.28 78.7164 228.132 79.0906 228.132H119.863C120.237 228.132 120.596 228.28 120.86 228.545C121.125 228.81 121.273 229.168 121.273 229.542C121.273 229.917 121.125 230.275 120.86 230.54C120.596 230.804 120.237 230.953 119.863 230.953Z" fill="white"/>
<path d="M152.976 215.922H79.0906C78.7164 215.922 78.3576 215.774 78.0931 215.509C77.8285 215.244 77.6799 214.886 77.6799 214.512C77.6799 214.137 77.8285 213.779 78.0931 213.514C78.3576 213.249 78.7164 213.101 79.0906 213.101H152.976C153.35 213.101 153.709 213.249 153.974 213.514C154.238 213.779 154.387 214.137 154.387 214.512C154.387 214.886 154.238 215.244 153.974 215.509C153.709 215.774 153.35 215.922 152.976 215.922Z" fill="white"/>
<path d="M423.677 338.934H309.734C308.689 338.934 307.686 338.519 306.947 337.779C306.208 337.04 305.792 336.037 305.792 334.992C305.792 333.946 306.208 332.944 306.947 332.204C307.686 331.465 308.689 331.05 309.734 331.05H423.677C424.722 331.05 425.725 331.465 426.464 332.204C427.203 332.944 427.619 333.946 427.619 334.992C427.619 336.037 427.203 337.04 426.464 337.779C425.725 338.519 424.722 338.934 423.677 338.934Z" fill="#F2F2F2"/>
<path d="M423.677 423H309.734C308.689 423 307.686 422.585 306.947 421.845C306.208 421.106 305.792 420.103 305.792 419.058C305.792 418.012 306.208 417.01 306.947 416.27C307.686 415.531 308.689 415.116 309.734 415.116H423.677C424.722 415.116 425.725 415.531 426.464 416.27C427.203 417.01 427.619 418.012 427.619 419.058C427.619 420.103 427.203 421.106 426.464 421.845C425.725 422.585 424.722 423 423.677 423Z" fill="#F2F2F2"/>
<path d="M516.215 380.994H309.734C309.216 380.995 308.703 380.894 308.224 380.696C307.745 380.498 307.31 380.208 306.943 379.842C306.576 379.476 306.285 379.041 306.087 378.562C305.888 378.084 305.786 377.57 305.786 377.052C305.786 376.534 305.888 376.021 306.087 375.542C306.285 375.064 306.576 374.629 306.943 374.263C307.31 373.896 307.745 373.606 308.224 373.408C308.703 373.211 309.216 373.109 309.734 373.11H516.215C517.26 373.112 518.261 373.528 518.999 374.267C519.737 375.006 520.152 376.008 520.152 377.052C520.152 378.097 519.737 379.099 518.999 379.838C518.261 380.577 517.26 380.993 516.215 380.994Z" fill="#F2F2F2"/>
<path d="M245.422 376.568L251.896 382.66L278.999 360.036L269.445 351.045L245.422 376.568Z" fill="#FFB6B6"/>
<path d="M257.209 402.912L253.612 386.139L257.971 381.507L255.625 379.544L248.337 373.471L246.555 371.979L229.792 387.055L234.651 391.622L239.831 387.854L237.729 394.524L250.598 406.638C251.215 407.219 252.002 407.587 252.843 407.689C253.684 407.791 254.535 407.622 255.273 407.206C256.011 406.79 256.597 406.149 256.945 405.377C257.294 404.604 257.386 403.741 257.209 402.912V402.912Z" fill="#2F2E41"/>
<path d="M213.867 400.127L222.655 401.463L232.104 367.445L219.134 365.474L213.867 400.127Z" fill="#FFB6B6"/>
<path d="M238.534 415.109L226.044 403.35L227 397.061L223.953 396.779L214.506 395.922L212.191 395.707L206.964 417.637L213.557 418.635L215.679 412.591L217.739 419.274L235.212 421.931C236.049 422.058 236.906 421.914 237.656 421.52C238.406 421.127 239.01 420.503 239.381 419.742C239.752 418.98 239.87 418.12 239.718 417.286C239.565 416.453 239.151 415.69 238.534 415.109L238.534 415.109Z" fill="#2F2E41"/>
<path d="M298.413 158.474L323.616 203.613C323.616 203.613 322.564 296.449 325.914 299.892C329.263 303.336 332.296 306.424 329.263 306.396C326.23 306.368 327.209 328.33 327.209 328.33L271.308 371.608L257.783 360.789L291.712 318.909L272.975 233.185C272.975 233.185 259.513 314.253 257.087 316.679C254.661 319.105 253.197 319.088 255.749 321.523C258.3 323.958 255.749 329.464 255.749 329.464L229.153 384.662L214.727 382.843C214.727 382.843 217.228 337.781 225.937 318.435V227.015C225.281 234.853 255.964 155.52 237.201 161.474C243.137 159.59 298.413 158.474 298.413 158.474Z" fill="#2F2E41"/>
<path d="M286.851 50.9022H266.016L263.066 62.7016L247.046 67.1315C247.046 67.1315 239.122 119.678 245.777 123.917C252.432 128.155 247.792 141.414 247.792 141.414C247.792 141.414 231.219 159.312 233.208 161.964C235.196 164.616 239.231 160.581 234.562 165.25C229.893 169.919 227.241 169.256 228.567 170.582C229.387 171.423 230.023 172.425 230.433 173.526L224.715 188.414C224.715 188.414 255.084 194.447 270.331 185.829C285.578 177.211 319.386 193.784 319.386 193.784C319.386 193.784 317.648 185.082 316.197 183.798C314.746 182.514 311.364 185.761 313.718 181.486C316.072 177.211 318.061 179.2 316.072 177.211C314.083 175.222 305.465 148.706 305.465 148.706C305.465 148.706 298.836 134.122 306.128 128.155C313.42 122.189 316.197 102.62 316.197 102.62L307.455 67.1315L292.87 63.8528L286.851 50.9022Z" fill="#E6E6E6"/>
<path d="M204.375 186.386L209.379 166.329L198.32 161.871L193.784 183.266C192.749 184.032 191.948 185.071 191.471 186.267C190.995 187.463 190.861 188.768 191.086 190.036C191.31 191.303 191.884 192.483 192.742 193.443C193.6 194.402 194.709 195.103 195.944 195.467C197.179 195.831 198.491 195.843 199.732 195.502C200.974 195.161 202.096 194.481 202.971 193.537C203.847 192.594 204.443 191.425 204.691 190.162C204.939 188.898 204.829 187.591 204.375 186.386V186.386Z" fill="#FFB6B6"/>
<path d="M252.984 65.7906L252.654 65.7338C249.583 65.2063 246.431 65.4351 243.469 66.4004C240.507 67.3657 237.825 69.0384 235.655 71.2737C229.99 77.1017 204.702 120.444 205.613 127.688C206.461 134.443 206.788 132.94 203.699 136.389C200.61 139.838 199.435 134.586 199.387 141.767C199.339 148.948 202.083 148.885 199.167 150.641C196.25 152.397 194.322 151.174 194.855 156.019C195.387 160.863 194.572 162.149 194.399 163.842C194.227 165.536 190.04 176.401 190.04 176.401C190.04 176.401 202.363 179.71 207.333 184.665C207.333 184.665 207.898 172.404 210.407 171.291C212.916 170.178 215.252 170.758 214.546 167.607C213.841 164.455 210.219 163.06 214.657 163.17C219.094 163.28 225.947 139.684 225.947 139.684L255.582 85.6139L252.984 65.7906Z" fill="#E6E6E6"/>
<path d="M319.863 196.323L320.753 175.669L332.622 174.532L330.904 196.334C331.679 197.362 332.152 198.586 332.27 199.868C332.388 201.15 332.146 202.439 331.571 203.591C330.996 204.743 330.112 205.712 329.016 206.388C327.921 207.065 326.659 207.423 325.372 207.421C324.084 207.42 322.823 207.06 321.729 206.381C320.635 205.702 319.753 204.731 319.18 203.578C318.608 202.425 318.368 201.135 318.489 199.853C318.61 198.571 319.085 197.349 319.863 196.323Z" fill="#FFB6B6"/>
<path d="M307.455 66.892L307.788 66.9311C310.882 67.2961 313.84 68.4097 316.407 70.1755C318.973 71.9413 321.071 74.306 322.517 77.065C326.296 84.2604 338.252 132.995 335.325 139.683C332.595 145.92 332.708 144.386 334.692 148.57C336.675 152.754 339.292 148.05 337.301 154.95C335.31 161.849 332.697 161.011 334.995 163.522C337.294 166.033 339.49 165.407 337.605 169.902C335.72 174.397 336.137 175.861 335.823 177.534C335.508 179.206 336.441 190.813 336.441 190.813C336.441 190.813 323.685 190.491 317.514 193.833C317.514 193.833 320.45 181.915 318.36 180.136C316.27 178.357 313.865 178.251 315.435 175.429C317.005 172.607 320.874 172.296 316.588 171.143C312.302 169.99 312.423 145.419 312.423 145.419L299.341 85.164L307.455 66.892Z" fill="#E6E6E6"/>
<path d="M229.092 36.9804C228.927 44.0923 231.585 50.9786 235.403 57.0271C236.679 53.515 238.465 50.2101 240.704 47.2188C239.632 53.8462 240.774 60.6421 243.953 66.555C244.065 66.6352 244.182 66.7096 244.301 66.7781C247.413 68.6502 251.359 69.4085 254.726 68.0564C247.77 60.5579 246.884 48.1342 252.716 39.7236C254.368 37.337 256.503 35.2263 257.526 32.5104C259.14 28.1769 257.588 23.4057 256.609 18.8877C255.693 14.6827 255.533 9.67877 258.354 6.59708C258.053 6.16642 257.642 5.82361 257.165 5.60378C256.688 5.38396 256.16 5.29503 255.637 5.34608C253.898 5.59178 252.632 7.10361 251.825 8.66071C251.019 10.2178 250.487 11.9435 249.363 13.2884C247.282 15.8057 243.738 16.4008 240.752 17.7275C233.519 20.9491 229.266 29.0668 229.092 36.9804Z" fill="#2F2E41"/>
<path d="M289.975 32.9141C289.562 31.4675 292.411 40.3105 291.036 40.4701C284.775 41.1884 276.18 44.9278 271.819 46.6723C271.623 46.6495 271.426 46.6266 271.236 46.5981C270.768 46.5468 270.312 46.4727 269.861 46.3872C259.707 44.466 255.802 28.8679 255.802 28.7253C255.802 28.0241 257.485 8.76474 260.136 8.47969C260.832 8.40413 261.532 8.36607 262.233 8.36566H268.812C270.173 8.07231 271.553 7.87231 272.942 7.76706H272.953C286.197 6.75798 296.641 14.8306 295.664 24.6534C295.659 24.6648 295.647 24.6762 295.641 24.6876C295.358 25.1095 295.11 25.5085 294.89 25.8905C294.677 26.2497 294.498 26.5917 294.342 26.9167C293.135 29.4251 296.238 32.5815 294.18 33.1707C291.443 33.9543 301.377 59.7088 290.546 59.7088C295.814 61.2068 291.116 36.9048 289.975 32.9141Z" fill="#2F2E41"/>
<path d="M278.152 48.0258C286.755 48.0258 293.729 41.0521 293.729 32.4495C293.729 23.8469 286.755 16.8732 278.152 16.8732C269.55 16.8732 262.576 23.8469 262.576 32.4495C262.576 41.0521 269.55 48.0258 278.152 48.0258Z" fill="#FFB6B6"/>
<path d="M295.664 25.5029C295.404 25.6397 295.15 25.7651 294.89 25.8906C294.619 26.0217 294.347 26.1528 294.076 26.2725C288.86 28.6385 284.615 28.9007 282.039 25.5029C281.97 23.7151 281.568 21.9557 280.855 20.315C280.981 22.1485 280.497 23.9724 279.48 25.5029H274.293C268.95 29.0489 266.207 29.4195 269.915 41.0609C270.949 44.3048 275.06 63.1808 273.443 65.98C272.975 65.9286 267.997 45.2536 267.547 45.1681C257.392 43.2469 250.941 26.5177 251.767 25.5713C251.763 22.8801 252.381 20.2245 253.575 17.8123C255.084 14.7561 257.437 12.1962 260.356 10.4352C262.095 9.5917 263.909 8.9104 265.773 8.39995C265.82 8.38853 265.86 8.37711 265.906 8.36573C266.478 8.2118 267.061 8.06927 267.645 7.94955C268.85 7.69507 270.069 7.51044 271.295 7.39657C271.382 7.39087 271.469 7.38516 271.549 7.38516C272.039 7.38631 272.52 7.51816 272.941 7.76713C272.947 7.76713 272.947 7.77281 272.953 7.77281C273.254 7.94892 273.518 8.18345 273.727 8.46264C274.096 8.93239 274.295 9.51296 274.293 10.1102H280.069C280.283 10.1102 280.497 10.1159 280.71 10.1273C284.565 10.2591 288.232 11.8246 290.994 14.5176C293.755 17.2106 295.413 20.8372 295.641 24.6877C295.659 24.9613 295.664 25.2292 295.664 25.5029Z" fill="#2F2E41"/>
<path d="M261.608 20.5236C267.275 20.5236 271.869 15.9292 271.869 10.2618C271.869 4.59436 267.275 0 261.608 0C255.94 0 251.346 4.59436 251.346 10.2618C251.346 15.9292 255.94 20.5236 261.608 20.5236Z" fill="#2F2E41"/>
<path d="M359.114 319.441C359.533 319.461 359.948 319.351 360.302 319.126C360.657 318.902 360.934 318.574 361.096 318.187C361.257 317.8 361.296 317.372 361.207 316.962C361.118 316.552 360.905 316.18 360.597 315.895L360.457 315.338C360.475 315.293 360.494 315.248 360.512 315.204C360.934 314.207 361.642 313.356 362.546 312.76C363.45 312.163 364.51 311.847 365.593 311.851C366.676 311.855 367.733 312.179 368.633 312.783C369.532 313.386 370.233 314.241 370.648 315.242C372.306 319.234 374.416 323.233 374.936 327.455C375.165 329.321 375.068 331.212 374.65 333.045C378.544 324.552 380.566 315.321 380.579 305.978C380.58 303.633 380.449 301.291 380.189 298.961C379.973 297.05 379.674 295.154 379.292 293.271C377.205 283.054 372.724 273.479 366.218 265.33C363.069 263.612 360.522 260.969 358.921 257.759C358.341 256.605 357.931 255.374 357.704 254.102C358.059 254.149 359.043 248.739 358.776 248.407C359.271 247.656 360.157 247.282 360.697 246.549C363.386 242.903 367.091 243.54 369.025 248.494C373.156 250.579 373.196 254.037 370.661 257.363C369.049 259.479 368.827 262.342 367.412 264.608C367.557 264.794 367.709 264.975 367.854 265.161C370.516 268.583 372.835 272.258 374.78 276.133C374.307 271.792 374.871 267.401 376.427 263.321C378.003 259.518 380.957 256.316 383.559 253.029C384.247 252.146 385.181 251.486 386.244 251.134C387.307 250.782 388.45 250.753 389.529 251.051C390.609 251.348 391.575 251.959 392.308 252.806C393.04 253.653 393.504 254.698 393.643 255.809C393.648 255.857 393.653 255.906 393.658 255.954C393.272 256.172 392.894 256.403 392.524 256.648C392.059 256.959 391.698 257.403 391.49 257.922C391.282 258.441 391.235 259.01 391.356 259.556C391.477 260.102 391.76 260.599 392.168 260.981C392.576 261.364 393.09 261.614 393.643 261.699L393.699 261.708C393.561 263.1 393.318 264.481 392.971 265.837C396.309 278.744 389.103 283.445 378.814 283.656C378.587 283.773 378.366 283.889 378.139 284C380.092 289.536 381.318 295.303 381.784 301.156C382.048 304.609 382.033 308.077 381.738 311.528L381.755 311.405C382.501 307.569 384.547 304.107 387.55 301.604C392.009 297.941 398.308 296.593 403.119 293.648C403.63 293.32 404.225 293.145 404.832 293.143C405.44 293.142 406.035 293.314 406.548 293.64C407.061 293.966 407.47 294.431 407.727 294.982C407.984 295.532 408.078 296.145 407.998 296.747L407.978 296.876C407.261 297.168 406.563 297.504 405.888 297.883C405.501 298.101 405.123 298.333 404.753 298.577C404.288 298.888 403.928 299.332 403.719 299.851C403.511 300.37 403.464 300.939 403.585 301.485C403.706 302.031 403.989 302.528 404.397 302.91C404.805 303.293 405.319 303.543 405.872 303.628L405.929 303.637C405.969 303.643 406.004 303.649 406.045 303.654C404.82 306.58 403.1 309.273 400.961 311.615C398.874 322.883 389.911 323.952 380.323 320.671H380.317C379.265 325.242 377.74 329.692 375.769 333.948H359.521C359.463 333.768 359.41 333.581 359.358 333.401C360.862 333.495 362.372 333.405 363.854 333.133C362.648 331.654 361.443 330.163 360.237 328.684C360.21 328.656 360.185 328.627 360.162 328.596C359.55 327.839 358.933 327.088 358.321 326.331L358.321 326.33C358.288 324.01 358.555 321.694 359.113 319.442L359.114 319.441Z" fill="#F2F2F2"/>
<path d="M121.696 421.774C121.696 421.915 121.723 422.055 121.777 422.185C121.831 422.315 121.91 422.434 122.01 422.533C122.109 422.633 122.228 422.712 122.358 422.766C122.489 422.82 122.628 422.847 122.769 422.847H567.534C567.818 422.847 568.091 422.734 568.292 422.532C568.494 422.331 568.607 422.058 568.607 421.774C568.607 421.489 568.494 421.216 568.292 421.015C568.091 420.814 567.818 420.701 567.534 420.701H122.769C122.628 420.7 122.489 420.728 122.358 420.782C122.228 420.835 122.109 420.914 122.01 421.014C121.91 421.114 121.831 421.232 121.777 421.363C121.723 421.493 121.696 421.633 121.696 421.774Z" fill="#CCCCCC"/>
<path d="M323.1 191.542C324.354 192.865 322.453 194.584 320.989 193.45C308.786 183.989 296.582 174.534 284.379 165.085C284.365 165.07 284.348 165.058 284.329 165.049C283.487 164.478 282.686 163.849 281.93 163.168C270.573 161.97 258.091 158.01 246.266 156.29C235.824 157.695 225.412 159.369 214.941 160.611C205.808 161.759 196.613 162.354 187.408 162.394C179.913 162.358 171.841 162.313 165.042 159.108C157.975 155.777 154.043 149.224 152.231 142.49C151.338 139.054 150.755 135.544 150.49 132.003V110.047C151.455 100.487 154.401 91.0172 162.394 84.3467C174.389 74.3365 192.346 74.0755 207.694 73.7964C225.98 73.4472 244.27 74.1717 262.471 75.9659C277.302 77.4422 292.9 78.8735 306.616 84.5898C312.499 87.0473 318.043 90.4591 322.094 95.0771C326.653 100.309 329.29 106.939 329.57 113.873C330.296 128.357 323.01 141.608 319.018 155.282C315.555 167.12 313.604 181.469 323.1 191.542Z" fill="#50DEAD"/>
<path d="M232.566 98.0859H191.794C191.609 98.0859 191.425 98.0494 191.254 97.9785C191.083 97.9076 190.928 97.8037 190.797 97.6728C190.666 97.5418 190.562 97.3863 190.491 97.2151C190.42 97.044 190.383 96.8605 190.383 96.6753C190.383 96.49 190.42 96.3066 190.491 96.1355C190.562 95.9643 190.666 95.8088 190.797 95.6778C190.928 95.5468 191.083 95.4429 191.254 95.372C191.425 95.3011 191.609 95.2646 191.794 95.2646H232.566C232.94 95.2646 233.299 95.4132 233.564 95.6778C233.828 95.9423 233.977 96.3012 233.977 96.6753C233.977 97.0494 233.828 97.4082 233.564 97.6728C233.299 97.9373 232.94 98.0859 232.566 98.0859Z" fill="white"/>
<path d="M232.566 128.167H191.794C191.42 128.167 191.061 128.019 190.797 127.754C190.532 127.49 190.383 127.131 190.383 126.757C190.383 126.383 190.532 126.024 190.797 125.759C191.061 125.495 191.42 125.346 191.794 125.346H232.566C232.94 125.346 233.299 125.495 233.564 125.759C233.828 126.024 233.977 126.383 233.977 126.757C233.977 127.131 233.828 127.49 233.564 127.754C233.299 128.019 232.94 128.167 232.566 128.167Z" fill="white"/>
<path d="M265.68 113.137H191.794C191.42 113.137 191.061 112.988 190.797 112.723C190.532 112.459 190.383 112.1 190.383 111.726C190.383 111.352 190.532 110.993 190.797 110.728C191.061 110.464 191.42 110.315 191.794 110.315H265.68C266.054 110.315 266.413 110.464 266.677 110.728C266.942 110.993 267.09 111.352 267.09 111.726C267.09 112.1 266.942 112.459 266.677 112.723C266.413 112.988 266.054 113.137 265.68 113.137Z" fill="white"/>
<path d="M332.342 99.1152C336.121 105.145 338.259 112.086 337.604 119.24C337.04 125.412 334.507 131.218 331.739 136.688C328.871 142.358 325.659 147.863 323.313 153.782C320.737 160.234 319.786 167.22 320.541 174.126C321.005 178.609 321.91 183.032 322.762 187.454L325.364 200.951L327.624 199.636L290.227 167.305C288.916 166.172 286.994 168.077 288.314 169.218L325.712 201.548C325.926 201.749 326.199 201.876 326.491 201.909C326.783 201.943 327.078 201.881 327.332 201.733C327.586 201.585 327.786 201.359 327.901 201.089C328.016 200.818 328.041 200.518 327.972 200.232C326.443 192.302 324.638 184.368 323.518 176.367C322.874 172.333 322.784 168.23 323.249 164.171C323.707 161.077 324.52 158.046 325.673 155.139C330.158 143.418 338.559 133.165 340.179 120.422C341.193 112.438 338.911 104.505 334.678 97.75C333.755 96.2784 331.414 97.6345 332.342 99.1152V99.1152Z" fill="#3F3D56"/>
<path d="M292.591 155.472L237.283 162.015L209.629 165.286C201.205 166.283 192.425 167.683 184.007 165.919C169.834 162.95 161.035 150.108 158.266 136.574C156.553 128.197 157.159 119.431 158.601 111.062C159.37 106.6 160.384 102.184 161.48 97.7927C162.457 93.8789 163.186 89.6644 164.873 85.9802C166.22 82.9846 168.225 80.3307 170.737 78.2155C173.25 76.1003 176.207 74.5781 179.388 73.7619C181.376 73.3547 183.389 73.0879 185.414 72.9636C187.688 72.7353 189.965 72.5252 192.243 72.3332C196.799 71.9494 201.36 71.6386 205.927 71.4007C208.21 71.2818 210.494 71.1811 212.779 71.0986C214.514 71.0351 214.522 68.3299 212.779 68.3937C203.272 68.7417 193.783 69.4007 184.313 70.3707C180.455 70.7682 176.888 71.3426 173.406 73.1497C170.396 74.7236 167.753 76.9154 165.65 79.5816C163.494 82.3323 161.913 85.4877 161 88.8609C159.755 93.3429 158.626 97.8694 157.595 102.405C155.518 111.548 154.024 120.972 154.718 130.371C155.744 144.273 162.4 159.106 175.317 165.724C182.945 169.633 191.649 169.808 200.007 169.062C209.328 168.229 218.623 166.927 227.917 165.828L285.454 159.021L292.591 158.177C294.299 157.975 294.319 155.267 292.591 155.472H292.591Z" fill="#3F3D56"/>
</g>
<defs>
<clipPath id="clip0_81_502">
<rect width="568.607" height="423" fill="white"/>
</clipPath>
</defs>
</svg>
