<svg width="428" height="358" viewBox="0 0 428 358" fill="none" xmlns="http://www.w3.org/2000/svg">
<g clip-path="url(#clip0_81_474)">
<path d="M201.033 357.842C294.386 357.842 370.063 353.973 370.063 349.199C370.063 344.425 294.386 340.555 201.033 340.555C107.68 340.555 32.0022 344.425 32.0022 349.199C32.0022 353.973 107.68 357.842 201.033 357.842Z" fill="#F2F2F2"/>
<path d="M299.788 83.0493H297.867V30.4456C297.867 22.3709 294.66 14.627 288.95 8.91733C283.24 3.20767 275.496 8.91504e-06 267.422 0H155.974C147.899 -1.52828e-05 140.155 3.20762 134.445 8.91725C128.736 14.6269 125.528 22.3708 125.528 30.4455V319.034C125.528 327.108 128.736 334.852 134.445 340.562C140.155 346.271 147.899 349.479 155.974 349.479H267.422C275.496 349.479 283.24 346.272 288.95 340.562C294.66 334.852 297.867 327.108 297.867 319.034V120.494H299.788L299.788 83.0493Z" fill="#3F3D56"/>
<path d="M291.387 30.658V318.821C291.387 324.852 288.991 330.635 284.727 334.899C280.463 339.163 274.68 341.559 268.65 341.559H156.667C150.637 341.559 144.853 339.163 140.589 334.899C136.325 330.635 133.93 324.852 133.929 318.821V30.658C133.93 24.6277 136.325 18.8444 140.589 14.5803C144.853 10.3162 150.637 7.92065 156.667 7.92053H170.252C169.584 9.56088 169.33 11.3401 169.512 13.1018C169.693 14.8634 170.305 16.5535 171.293 18.0233C172.28 19.4931 173.614 20.6976 175.177 21.5309C176.74 22.3642 178.483 22.8006 180.254 22.8019H244.102C245.873 22.8006 247.616 22.3641 249.179 21.5309C250.742 20.6976 252.076 19.4931 253.064 18.0233C254.051 16.5535 254.663 14.8634 254.845 13.1018C255.026 11.3401 254.772 9.56088 254.104 7.92053H268.65C274.68 7.92064 280.463 10.3162 284.727 14.5803C288.991 18.8444 291.387 24.6277 291.387 30.658Z" fill="white"/>
<path d="M255.312 154.913C254.567 155.302 253.81 155.67 253.04 156.017C252.339 156.334 251.627 156.632 250.903 156.91C250.639 157.011 250.371 157.112 250.102 157.213C247.975 157.984 245.792 158.586 243.571 159.014C242.471 159.23 241.357 159.399 240.229 159.523C239.297 159.628 238.356 159.704 237.405 159.748C236.728 159.782 236.051 159.796 235.369 159.796C232.669 159.798 229.974 159.545 227.321 159.043C226.629 158.918 225.952 158.769 225.275 158.606C222 157.821 218.829 156.65 215.83 155.119C215.561 154.985 215.292 154.841 215.023 154.702C214.624 154.49 214.235 154.269 213.846 154.039C214.034 153.78 214.235 153.525 214.442 153.275C216.689 150.491 219.497 148.211 222.684 146.584C225.872 144.958 229.366 144.021 232.939 143.835C236.512 143.65 240.085 144.219 243.423 145.506C246.762 146.793 249.792 148.77 252.315 151.306C253.191 152.185 254.003 153.126 254.745 154.12C254.942 154.38 255.129 154.644 255.312 154.913Z" fill="#50DEAD"/>
<path d="M236.327 133.819C247.972 133.819 257.413 124.379 257.413 112.733C257.413 101.088 247.972 91.648 236.327 91.648C224.682 91.648 215.242 101.088 215.242 112.733C215.242 124.379 224.682 133.819 236.327 133.819Z" fill="#2F2E41"/>
<path d="M241.935 133.849C249.54 129.691 252.335 120.156 248.178 112.551C244.021 104.946 234.486 102.151 226.88 106.308C219.275 110.466 216.48 120.001 220.638 127.606C224.795 135.211 234.33 138.006 241.935 133.849Z" fill="#A0616A"/>
<path d="M250.898 110.207C247.312 112.679 243.055 113.995 238.7 113.977C240.254 115.054 242.022 115.782 243.884 116.11C238.093 117.352 232.109 117.386 226.304 116.209C225.014 116.002 223.769 115.574 222.624 114.945C222.053 114.626 221.556 114.191 221.165 113.667C220.773 113.144 220.497 112.544 220.352 111.907C219.967 109.703 221.683 107.701 223.468 106.352C226.2 104.318 229.35 102.917 232.689 102.249C236.029 101.582 239.476 101.665 242.78 102.493C244.937 103.051 247.098 103.993 248.499 105.725C249.901 107.458 250.316 110.129 248.981 111.913L250.898 110.207Z" fill="#2F2E41"/>
<path d="M235.369 73.3603C225.944 73.3589 216.776 76.4392 209.264 82.1318C201.752 87.8243 196.307 95.8169 193.76 104.891C191.212 113.966 191.701 123.624 195.152 132.395C198.603 141.166 204.828 148.567 212.876 153.472L213.155 153.635C213.385 153.775 213.616 153.909 213.846 154.039C214.235 154.269 214.624 154.49 215.023 154.701C215.292 154.841 215.561 154.985 215.83 155.119C218.829 156.65 222 157.821 225.275 158.605C225.952 158.769 226.629 158.918 227.321 159.042C229.974 159.545 232.669 159.797 235.369 159.796C236.051 159.796 236.728 159.782 237.405 159.748C238.356 159.705 239.297 159.63 240.229 159.523C241.357 159.398 242.471 159.228 243.571 159.014C245.792 158.586 247.975 157.984 250.102 157.213C250.37 157.112 250.639 157.011 250.903 156.91C251.628 156.632 252.341 156.334 253.04 156.017C253.809 155.671 254.566 155.303 255.312 154.913C262.787 150.998 268.966 144.997 273.098 137.64C273.117 137.601 273.142 137.563 273.161 137.525C275.365 133.568 276.929 129.288 277.795 124.843C279.009 118.584 278.825 112.135 277.256 105.956C275.686 99.7773 272.77 94.0219 268.716 89.1022C264.661 84.1824 259.569 80.22 253.804 77.4985C248.039 74.777 241.744 73.3639 235.369 73.3603H235.369ZM272.373 136.963C272.335 137.03 272.301 137.097 272.263 137.16C268.213 144.409 262.121 150.307 254.745 154.12C254.01 154.505 253.263 154.865 252.502 155.201C251.873 155.484 251.23 155.753 250.582 156.003C250.308 156.108 250.03 156.214 249.751 156.31C247.914 156.981 246.032 157.52 244.118 157.924C242.699 158.226 241.264 158.452 239.82 158.601C238.932 158.697 238.029 158.764 237.122 158.798C236.541 158.822 235.955 158.836 235.369 158.836C232.756 158.839 230.148 158.596 227.58 158.111C226.018 157.823 224.474 157.444 222.956 156.978C220.643 156.263 218.395 155.352 216.238 154.255C215.988 154.125 215.738 153.996 215.493 153.861C215.143 153.674 214.788 153.482 214.442 153.275C214.182 153.131 213.923 152.977 213.669 152.824C213.52 152.737 213.371 152.646 213.222 152.555C206.165 148.221 200.536 141.911 197.033 134.407C193.53 126.904 192.307 118.537 193.516 110.344C194.725 102.152 198.312 94.4943 203.833 88.3221C209.354 82.15 216.566 77.7346 224.574 75.6238C232.581 73.513 241.033 73.7997 248.879 76.4482C256.725 79.0967 263.621 83.9906 268.711 90.5227C273.801 97.0547 276.862 104.938 277.513 113.193C278.164 121.449 276.377 129.714 272.373 136.963H272.373Z" fill="#3F3D56"/>
<path d="M225.649 91.939C225.423 89.5534 222.5 88.0847 220.215 88.8053C217.929 89.5259 216.429 91.8271 215.975 94.1802C215.757 95.1712 215.736 96.1955 215.915 97.1944C216.093 98.1934 216.467 99.1472 217.015 100.001C218.17 101.664 220.293 102.702 222.273 102.279C224.533 101.798 226.099 99.5906 226.547 97.3233C226.995 95.056 226.551 92.7185 226.106 90.4505L225.649 91.939Z" fill="#2F2E41"/>
<path d="M257.814 95.347C257.587 92.9614 254.665 91.4927 252.379 92.2133C250.094 92.9339 248.593 95.2352 248.14 97.5882C247.922 98.5792 247.901 99.6035 248.08 100.602C248.258 101.601 248.632 102.555 249.18 103.409C250.335 105.072 252.458 106.11 254.438 105.687C256.698 105.206 258.264 102.999 258.712 100.731C259.16 98.4641 258.715 96.1265 258.271 93.8585L257.814 95.347Z" fill="#2F2E41"/>
<path d="M160.667 133.85C160.368 133.85 160.073 133.787 159.799 133.666C159.526 133.545 159.281 133.368 159.079 133.147L135.251 107.152C134.98 106.858 134.652 106.623 134.286 106.462C133.92 106.301 133.525 106.218 133.125 106.217H7.20746C5.29658 106.215 3.46458 105.455 2.11338 104.104C0.762187 102.753 0.00214543 100.921 0 99.0099V53.601C0.00214416 51.6901 0.762187 49.8581 2.11338 48.5069C3.46458 47.1557 5.29658 46.3956 7.20746 46.3935H170.344C172.254 46.3956 174.086 47.1557 175.438 48.5069C176.789 49.8581 177.549 51.6901 177.551 53.601V99.0099C177.549 100.921 176.789 102.753 175.438 104.104C174.086 105.455 172.254 106.215 170.344 106.217H165.719C164.954 106.218 164.221 106.522 163.681 107.063C163.14 107.603 162.836 108.336 162.835 109.101V131.686C162.837 132.122 162.706 132.549 162.46 132.908C162.214 133.268 161.864 133.545 161.457 133.701C161.205 133.8 160.937 133.85 160.667 133.85Z" fill="white"/>
<path d="M160.667 133.85C160.368 133.85 160.073 133.787 159.799 133.666C159.526 133.545 159.281 133.368 159.079 133.147L135.251 107.152C134.98 106.858 134.652 106.623 134.286 106.462C133.92 106.301 133.525 106.218 133.125 106.217H7.20746C5.29658 106.215 3.46458 105.455 2.11338 104.104C0.762187 102.753 0.00214543 100.921 0 99.0099V53.601C0.00214416 51.6901 0.762187 49.8581 2.11338 48.5069C3.46458 47.1557 5.29658 46.3956 7.20746 46.3935H170.344C172.254 46.3956 174.086 47.1557 175.438 48.5069C176.789 49.8581 177.549 51.6901 177.551 53.601V99.0099C177.549 100.921 176.789 102.753 175.438 104.104C174.086 105.455 172.254 106.215 170.344 106.217H165.719C164.954 106.218 164.221 106.522 163.681 107.063C163.14 107.603 162.836 108.336 162.835 109.101V131.686C162.837 132.122 162.706 132.549 162.46 132.908C162.214 133.268 161.864 133.545 161.457 133.701C161.205 133.8 160.937 133.85 160.667 133.85ZM7.20746 47.3539C5.55121 47.3558 3.96333 48.0145 2.79218 49.1857C1.62104 50.3568 0.96227 51.9447 0.9604 53.601V99.0099C0.962272 100.666 1.62104 102.254 2.79219 103.425C3.96333 104.596 5.55121 105.255 7.20746 105.257H133.125C133.658 105.258 134.185 105.369 134.673 105.583C135.16 105.798 135.598 106.111 135.959 106.503L159.787 132.498C159.951 132.677 160.165 132.802 160.4 132.856C160.636 132.911 160.883 132.894 161.109 132.806C161.334 132.718 161.528 132.564 161.665 132.365C161.802 132.165 161.875 131.928 161.875 131.686V109.101C161.876 108.082 162.281 107.105 163.002 106.384C163.722 105.663 164.699 105.258 165.719 105.257H170.344C172 105.255 173.588 104.596 174.759 103.425C175.93 102.254 176.589 100.666 176.591 99.0099V53.601C176.589 51.9447 175.93 50.3568 174.759 49.1857C173.588 48.0145 172 47.3558 170.344 47.3539H7.20746Z" fill="#3F3D56"/>
<path d="M17.6791 66.4248C21.1623 66.4248 23.9859 63.6011 23.9859 60.118C23.9859 56.6348 21.1623 53.8112 17.6791 53.8112C14.196 53.8112 11.3723 56.6348 11.3723 60.118C11.3723 63.6011 14.196 66.4248 17.6791 66.4248Z" fill="#50DEAD"/>
<path d="M162.986 95.0156H14.5654C14.1233 95.0161 13.6855 94.9295 13.277 94.7607C12.8684 94.5919 12.4971 94.3442 12.1844 94.0318C11.8716 93.7194 11.6235 93.3485 11.4542 92.9401C11.2849 92.5317 11.1978 92.094 11.1978 91.652C11.1978 91.2099 11.2849 90.7722 11.4542 90.3638C11.6235 89.9555 11.8716 89.5845 12.1844 89.2721C12.4971 88.9597 12.8684 88.712 13.277 88.5432C13.6855 88.3744 14.1233 88.2878 14.5654 88.2883H162.986C163.877 88.2894 164.732 88.6442 165.361 89.2749C165.991 89.9056 166.345 90.7606 166.345 91.652C166.345 92.5434 165.991 93.3983 165.361 94.029C164.732 94.6597 163.877 95.0145 162.986 95.0156Z" fill="#E6E6E6"/>
<path d="M114.633 80.7201H14.5654C14.1233 80.7207 13.6855 80.634 13.277 80.4652C12.8684 80.2964 12.4971 80.0488 12.1844 79.7364C11.8716 79.424 11.6235 79.053 11.4542 78.6446C11.2849 78.2363 11.1978 77.7986 11.1978 77.3565C11.1978 76.9144 11.2849 76.4767 11.4542 76.0684C11.6235 75.66 11.8716 75.289 12.1844 74.9766C12.4971 74.6642 12.8684 74.4166 13.277 74.2478C13.6855 74.079 14.1233 73.9923 14.5654 73.9929H114.633C115.526 73.9929 116.381 74.3472 117.012 74.978C117.643 75.6089 117.997 76.4644 117.997 77.3565C117.997 78.2486 117.643 79.1041 117.012 79.7349C116.381 80.3657 115.526 80.7201 114.633 80.7201Z" fill="#E6E6E6"/>
<path d="M266.543 287.845C266.136 287.689 265.786 287.413 265.54 287.053C265.294 286.693 265.163 286.266 265.165 285.83V263.245C265.164 262.481 264.86 261.748 264.319 261.207C263.779 260.667 263.046 260.362 262.281 260.362H257.656C255.746 260.359 253.914 259.599 252.562 258.248C251.211 256.897 250.451 255.065 250.449 253.154V207.745C250.451 205.834 251.211 204.002 252.562 202.651C253.914 201.3 255.746 200.54 257.656 200.538H420.792C422.703 200.54 424.535 201.3 425.887 202.651C427.238 204.002 427.998 205.834 428 207.745V253.154C427.998 255.065 427.238 256.897 425.887 258.248C424.535 259.599 422.703 260.359 420.792 260.362H294.875C294.475 260.362 294.08 260.445 293.714 260.606C293.348 260.767 293.02 261.002 292.749 261.297L268.921 287.291C268.719 287.513 268.474 287.689 268.201 287.811C267.927 287.932 267.632 287.994 267.333 287.995C267.063 287.994 266.795 287.944 266.543 287.845Z" fill="white"/>
<path d="M266.543 287.845C266.136 287.689 265.786 287.413 265.54 287.053C265.294 286.693 265.163 286.266 265.165 285.83V263.245C265.164 262.481 264.86 261.748 264.319 261.207C263.779 260.667 263.046 260.362 262.281 260.362H257.656C255.746 260.359 253.914 259.599 252.562 258.248C251.211 256.897 250.451 255.065 250.449 253.154V207.745C250.451 205.834 251.211 204.002 252.562 202.651C253.914 201.3 255.746 200.54 257.656 200.538H420.792C422.703 200.54 424.535 201.3 425.887 202.651C427.238 204.002 427.998 205.834 428 207.745V253.154C427.998 255.065 427.238 256.897 425.887 258.248C424.535 259.599 422.703 260.359 420.792 260.362H294.875C294.475 260.362 294.08 260.445 293.714 260.606C293.348 260.767 293.02 261.002 292.749 261.297L268.921 287.291C268.719 287.513 268.474 287.689 268.201 287.811C267.927 287.932 267.632 287.994 267.333 287.995C267.063 287.994 266.795 287.944 266.543 287.845ZM257.656 201.498C256 201.5 254.412 202.159 253.241 203.33C252.07 204.501 251.411 206.089 251.409 207.745V253.154C251.411 254.81 252.07 256.398 253.241 257.569C254.412 258.741 256 259.399 257.656 259.401H262.281C263.301 259.402 264.278 259.808 264.998 260.528C265.719 261.249 266.124 262.226 266.125 263.245V285.83C266.125 286.073 266.198 286.309 266.335 286.509C266.472 286.709 266.666 286.863 266.891 286.95C267.117 287.038 267.364 287.056 267.6 287.001C267.835 286.946 268.049 286.821 268.213 286.642L292.041 260.648C292.402 260.255 292.84 259.942 293.327 259.727C293.815 259.513 294.342 259.402 294.875 259.401H420.792C422.449 259.399 424.037 258.741 425.208 257.569C426.379 256.398 427.038 254.81 427.04 253.154V207.745C427.038 206.089 426.379 204.501 425.208 203.33C424.037 202.159 422.449 201.5 420.792 201.498H257.656Z" fill="#3F3D56"/>
<path d="M215.695 301.907C209.005 306.191 201.254 308.527 193.311 308.653C185.368 308.779 177.547 306.691 170.724 302.622C171.925 300.388 173.445 298.342 175.238 296.548C178.005 293.768 181.372 291.66 185.08 290.384C188.789 289.109 192.741 288.7 196.632 289.191C200.523 289.681 204.25 291.056 207.526 293.212C210.802 295.367 213.541 298.245 215.532 301.623C215.585 301.715 215.642 301.811 215.695 301.907Z" fill="#50DEAD"/>
<path d="M191.332 278.943C203.055 278.943 212.558 269.44 212.558 257.718C212.558 245.995 203.055 236.492 191.332 236.492C179.61 236.492 170.107 245.995 170.107 257.718C170.107 269.44 179.61 278.943 191.332 278.943Z" fill="#2F2E41"/>
<path d="M207.126 272.689C211.311 265.034 208.497 255.435 200.842 251.25C193.186 247.065 183.587 249.879 179.403 257.534C175.218 265.19 178.031 274.789 185.687 278.973C193.342 283.158 202.941 280.345 207.126 272.689Z" fill="#FFB8B8"/>
<path d="M176.665 255.175C180.275 257.663 184.559 258.987 188.944 258.97C187.38 260.054 185.599 260.787 183.725 261.117C189.554 262.367 195.579 262.401 201.422 261.216C202.721 261.008 203.974 260.578 205.127 259.944C205.701 259.623 206.202 259.185 206.595 258.658C206.989 258.131 207.268 257.527 207.413 256.886C207.802 254.668 206.073 252.652 204.277 251.294C201.527 249.247 198.356 247.836 194.994 247.164C191.632 246.492 188.163 246.576 184.837 247.41C182.665 247.971 180.49 248.919 179.079 250.663C177.669 252.407 177.251 255.096 178.595 256.892L176.665 255.175Z" fill="#2F2E41"/>
<path d="M192.631 309.138C182.236 309.135 172.19 305.384 164.337 298.573C156.484 291.763 151.35 282.349 149.876 272.058C148.403 261.768 150.689 251.292 156.315 242.551C161.941 233.81 170.53 227.39 180.506 224.469C190.483 221.549 201.178 222.323 210.629 226.65C220.081 230.978 227.656 238.568 231.964 248.028C236.272 257.488 237.025 268.185 234.084 278.155C231.144 288.126 224.707 296.702 215.955 302.311C208.995 306.774 200.899 309.144 192.631 309.138ZM192.631 223.663C184.272 223.662 176.101 226.14 169.15 230.784C162.2 235.427 156.782 242.027 153.583 249.75C150.384 257.472 149.547 265.97 151.177 274.168C152.808 282.367 156.833 289.897 162.744 295.808C168.654 301.719 176.185 305.744 184.383 307.374C192.582 309.005 201.079 308.168 208.802 304.968C216.524 301.769 223.125 296.352 227.768 289.401C232.411 282.451 234.889 274.279 234.889 265.92C234.876 254.717 230.42 243.976 222.498 236.054C214.576 228.132 203.835 223.676 192.631 223.663Z" fill="#3F3D56"/>
<path d="M270.745 220.089C274.228 220.089 277.051 217.265 277.051 213.782C277.051 210.299 274.228 207.475 270.745 207.475C267.261 207.475 264.438 210.299 264.438 213.782C264.438 217.265 267.261 220.089 270.745 220.089Z" fill="#50DEAD"/>
<path d="M416.051 248.68H267.631C267.189 248.68 266.751 248.594 266.342 248.425C265.934 248.256 265.563 248.008 265.25 247.696C264.937 247.384 264.689 247.013 264.52 246.604C264.35 246.196 264.263 245.758 264.263 245.316C264.263 244.874 264.35 244.436 264.52 244.028C264.689 243.62 264.937 243.249 265.25 242.936C265.563 242.624 265.934 242.376 266.342 242.207C266.751 242.039 267.189 241.952 267.631 241.952H416.051C416.943 241.952 417.799 242.307 418.43 242.938C419.06 243.568 419.415 244.424 419.415 245.316C419.415 246.208 419.06 247.064 418.43 247.695C417.799 248.325 416.943 248.68 416.051 248.68Z" fill="#E6E6E6"/>
<path d="M367.699 234.384H267.631C267.189 234.385 266.751 234.298 266.342 234.129C265.934 233.96 265.563 233.713 265.25 233.4C264.937 233.088 264.689 232.717 264.52 232.309C264.35 231.9 264.263 231.463 264.263 231.02C264.263 230.578 264.35 230.141 264.52 229.732C264.689 229.324 264.937 228.953 265.25 228.641C265.563 228.328 265.934 228.081 266.342 227.912C266.751 227.743 267.189 227.656 267.631 227.657H367.699C368.59 227.658 369.445 228.013 370.075 228.643C370.705 229.274 371.058 230.129 371.058 231.02C371.058 231.912 370.705 232.767 370.075 233.398C369.445 234.028 368.59 234.383 367.699 234.384Z" fill="#E6E6E6"/>
<path d="M266.34 292.144C272.839 292.144 278.107 291.56 278.107 290.838C278.107 290.117 272.839 289.532 266.34 289.532C259.841 289.532 254.573 290.117 254.573 290.838C254.573 291.56 259.841 292.144 266.34 292.144Z" fill="#F2F2F2"/>
<path d="M161.176 138.48C167.675 138.48 172.943 137.896 172.943 137.174C172.943 136.453 167.675 135.868 161.176 135.868C154.677 135.868 149.409 136.453 149.409 137.174C149.409 137.896 154.677 138.48 161.176 138.48Z" fill="#F2F2F2"/>
</g>
<defs>
<clipPath id="clip0_81_474">
<rect width="428" height="357.842" fill="white"/>
</clipPath>
</defs>
</svg>
