<svg width="58" height="58" viewBox="0 0 58 58" fill="none" xmlns="http://www.w3.org/2000/svg">
<g filter="url(#filter0_d_81_552)">
<g clip-path="url(#clip0_81_552)">
<path d="M16.6787 49.8232C13.7052 49.6879 12.0899 49.1931 11.0155 48.774C9.59188 48.2198 8.57693 47.56 7.50849 46.493C6.44004 45.426 5.77876 44.4111 5.22745 42.9875C4.80839 41.9131 4.31355 40.2978 4.17832 37.3243C4.02972 34.11 4 33.1456 4 25.0022C4 16.8589 4.03269 15.8959 4.17684 12.6787C4.31206 9.70517 4.80988 8.09285 5.22596 7.01548C5.78025 5.59188 6.44153 4.57693 7.507 3.507C8.57396 2.44004 9.58891 1.77728 11.014 1.22596C12.0884 0.806907 13.7037 0.312063 16.6772 0.176836C19.8929 0.0297203 20.8589 0 28.9993 0C37.1426 0 38.1056 0.0326924 41.3228 0.176836C44.2963 0.312063 45.9086 0.809879 46.986 1.22596C48.4096 1.77728 49.4246 2.44004 50.493 3.507C51.5614 4.57396 52.2198 5.59039 52.774 7.014C53.1931 8.08839 53.6879 9.70369 53.8232 12.6772C53.9703 15.8944 54 16.8574 54 25.0007C54 33.1411 53.9703 34.1071 53.8232 37.3243C53.6879 40.2978 53.1901 41.9131 52.774 42.9875C52.2198 44.4111 51.56 45.426 50.493 46.493C49.426 47.56 48.4096 48.2198 46.986 48.774C45.9116 49.1931 44.2963 49.6879 41.3228 49.8232C38.1085 49.9703 37.1426 50 28.9993 50C20.8589 50 19.8929 49.9718 16.6787 49.8232Z" fill="url(#paint0_radial_81_552)"/>
<path d="M16.6787 49.8232C13.7052 49.6879 12.0899 49.1931 11.0155 48.774C9.59188 48.2198 8.57693 47.56 7.50849 46.493C6.44004 45.426 5.77876 44.4111 5.22745 42.9875C4.80839 41.9131 4.31355 40.2978 4.17832 37.3243C4.02972 34.11 4 33.1456 4 25.0022C4 16.8589 4.03269 15.8959 4.17684 12.6787C4.31206 9.70517 4.80988 8.09285 5.22596 7.01548C5.78025 5.59188 6.44153 4.57693 7.507 3.507C8.57396 2.44004 9.58891 1.77728 11.014 1.22596C12.0884 0.806907 13.7037 0.312063 16.6772 0.176836C19.8929 0.0297203 20.8589 0 28.9993 0C37.1426 0 38.1056 0.0326924 41.3228 0.176836C44.2963 0.312063 45.9086 0.809879 46.986 1.22596C48.4096 1.77728 49.4246 2.44004 50.493 3.507C51.5614 4.57396 52.2198 5.59039 52.774 7.014C53.1931 8.08839 53.6879 9.70369 53.8232 12.6772C53.9703 15.8944 54 16.8574 54 25.0007C54 33.1411 53.9703 34.1071 53.8232 37.3243C53.6879 40.2978 53.1901 41.9131 52.774 42.9875C52.2198 44.4111 51.56 45.426 50.493 46.493C49.426 47.56 48.4096 48.2198 46.986 48.774C45.9116 49.1931 44.2963 49.6879 41.3228 49.8232C38.1085 49.9703 37.1426 50 28.9993 50C20.8589 50 19.8929 49.9718 16.6787 49.8232Z" fill="url(#paint1_radial_81_552)"/>
<path d="M22.8613 25.1065C22.8613 21.687 25.6325 18.9143 29.052 18.9143C32.4715 18.9143 35.2442 21.687 35.2442 25.1065C35.2442 28.526 32.4715 31.2987 29.052 31.2987C25.6325 31.2987 22.8613 28.526 22.8613 25.1065ZM19.5139 25.1065C19.5139 30.3744 23.7841 34.6447 29.052 34.6447C34.3199 34.6447 38.5902 30.3744 38.5902 25.1065C38.5902 19.8386 34.3199 15.5684 29.052 15.5684C23.7841 15.5684 19.514 19.8383 19.514 25.1065M36.7389 15.1902C36.7387 15.631 36.8693 16.0621 37.114 16.4287C37.3588 16.7954 37.7068 17.0812 38.1141 17.2501C38.5213 17.419 38.9695 17.4633 39.4019 17.3774C39.8343 17.2916 40.2316 17.0795 40.5434 16.7679C40.8553 16.4563 41.0677 16.0592 41.1539 15.6268C41.2401 15.1945 41.1961 14.7463 41.0276 14.3389C40.8591 13.9315 40.5735 13.5833 40.207 13.3382C39.8406 13.0931 39.4097 12.9622 38.9688 12.962H38.9679C38.377 12.9623 37.8103 13.1971 37.3924 13.6149C36.9744 14.0327 36.7394 14.5992 36.7389 15.1902ZM21.5476 40.2264C19.7366 40.144 18.7523 39.8423 18.0981 39.5875C17.2309 39.2498 16.6121 38.8477 15.9615 38.198C15.311 37.5483 14.9083 36.9302 14.5721 36.0629C14.3171 35.4091 14.0155 34.4244 13.9331 32.6134C13.8431 30.6555 13.8251 30.0673 13.8251 25.1068C13.8251 20.1463 13.8446 19.5598 13.9331 17.6002C14.0156 15.7892 14.3195 14.8065 14.5721 14.1507C14.9097 13.2835 15.3119 12.6647 15.9615 12.0141C16.6112 11.3635 17.2294 10.9608 18.0981 10.6247C18.752 10.3697 19.7366 10.068 21.5476 9.9857C23.5056 9.89565 24.0938 9.87767 29.052 9.87767C34.0103 9.87767 34.599 9.89684 36.5586 9.986C38.3696 10.0685 39.3523 10.3724 40.0081 10.625C40.8754 10.9611 41.4941 11.3647 42.1447 12.0144C42.7953 12.6641 43.1965 13.2838 43.5341 14.151C43.7891 14.8049 44.0908 15.7895 44.1731 17.6005C44.2632 19.5601 44.2812 20.1466 44.2812 25.1071C44.2812 30.0676 44.2632 30.6541 44.1731 32.6137C44.0907 34.4247 43.7875 35.4091 43.5341 36.0632C43.1965 36.9305 42.7944 37.5492 42.1447 38.1983C41.495 38.8474 40.8754 39.2501 40.0081 39.5877C39.3543 39.8428 38.3696 40.1444 36.5586 40.2267C34.6007 40.3168 34.0125 40.3348 29.052 40.3348C24.0915 40.3348 23.505 40.3168 21.5476 40.2267M21.3938 6.6438C19.4164 6.73386 18.0652 7.0474 16.8851 7.50658C15.6637 7.98077 14.6284 8.61694 13.5946 9.64912C12.5608 10.6813 11.9263 11.7168 11.4521 12.9396C10.9929 14.1204 10.6794 15.4709 10.5893 17.4483C10.4978 19.4289 10.4768 20.0621 10.4768 25.1065C10.4768 30.1509 10.4978 30.7841 10.5893 32.7647C10.6794 34.7423 10.9929 36.0926 11.4521 37.2734C11.9263 38.4948 12.5609 39.5322 13.5946 40.5639C14.6283 41.5957 15.6623 42.2309 16.8851 42.7065C18.0674 43.1656 19.4164 43.4792 21.3938 43.5692C23.3754 43.6593 24.0076 43.6817 29.052 43.6817C34.0964 43.6817 34.7296 43.6608 36.7102 43.5692C38.6878 43.4792 40.0381 43.1656 41.2189 42.7065C42.4403 42.2309 43.4756 41.5961 44.5094 40.5639C45.5432 39.5317 46.1764 38.4948 46.652 37.2734C47.1111 36.0926 47.4262 34.7421 47.5147 32.7647C47.6048 30.7827 47.6257 30.1509 47.6257 25.1065C47.6257 20.0621 47.6048 19.4289 47.5147 17.4483C47.4247 15.4707 47.1111 14.1197 46.652 12.9396C46.1764 11.7183 45.5416 10.6829 44.5094 9.64912C43.4772 8.6153 42.4403 7.98077 41.2204 7.50658C40.0381 7.0474 38.6876 6.73237 36.7117 6.6438C34.7308 6.5533 34.0979 6.53131 29.0542 6.53131C24.0106 6.53131 23.3762 6.55226 21.3946 6.6438" fill="white"/>
</g>
<rect x="5" y="1" width="48" height="48" rx="24" stroke="white" stroke-width="2" shape-rendering="crispEdges"/>
</g>
<defs>
<filter id="filter0_d_81_552" x="0" y="0" width="58" height="58" filterUnits="userSpaceOnUse" color-interpolation-filters="sRGB">
<feFlood flood-opacity="0" result="BackgroundImageFix"/>
<feColorMatrix in="SourceAlpha" type="matrix" values="0 0 0 0 0 0 0 0 0 0 0 0 0 0 0 0 0 0 127 0" result="hardAlpha"/>
<feOffset dy="4"/>
<feGaussianBlur stdDeviation="2"/>
<feComposite in2="hardAlpha" operator="out"/>
<feColorMatrix type="matrix" values="0 0 0 0 0 0 0 0 0 0 0 0 0 0 0 0 0 0 0.25 0"/>
<feBlend mode="normal" in2="BackgroundImageFix" result="effect1_dropShadow_81_552"/>
<feBlend mode="normal" in="SourceGraphic" in2="effect1_dropShadow_81_552" result="shape"/>
</filter>
<radialGradient id="paint0_radial_81_552" cx="0" cy="0" r="1" gradientUnits="userSpaceOnUse" gradientTransform="translate(7.23595 48.9047) scale(63.4814)">
<stop offset="0.09" stop-color="#FA8F21"/>
<stop offset="0.78" stop-color="#D82D7E"/>
</radialGradient>
<radialGradient id="paint1_radial_81_552" cx="0" cy="0" r="1" gradientUnits="userSpaceOnUse" gradientTransform="translate(38.6333 47.2992) scale(55.8643)">
<stop offset="0.64" stop-color="#8C3AAA" stop-opacity="0"/>
<stop offset="1" stop-color="#8C3AAA"/>
</radialGradient>
<clipPath id="clip0_81_552">
<rect x="4" width="50" height="50" rx="25" fill="white"/>
</clipPath>
</defs>
</svg>
