<svg width="50" height="52" viewBox="0 0 50 52" fill="none" xmlns="http://www.w3.org/2000/svg">
<g clip-path="url(#clip0_81_560)">
<rect x="10" y="10" width="30" height="31.2" fill="white"/>
<path d="M25 0C11.1895 0 0 11.1895 0 25C0 38.8105 11.1895 50 25 50C38.8105 50 50 38.8105 50 25C50 11.1895 38.8105 0 25 0ZM42.0867 34.1633C41.7339 34.9798 40.2621 35.5746 37.5706 35.998C37.4294 36.1895 37.3185 36.9859 37.1371 37.6008C37.0262 37.9738 36.7641 38.1956 36.3206 38.1956H36.3004C35.6754 38.1956 35.0101 37.9032 33.6996 37.9032C31.9254 37.9032 31.3105 38.3065 29.9294 39.2843C28.4677 40.3226 27.0665 41.2097 24.9698 41.1189C22.8528 41.2802 21.0786 39.9899 20.0806 39.2843C18.6895 38.3065 18.0847 37.9032 16.3105 37.9032C15.0504 37.9032 14.254 38.2157 13.7097 38.2157C13.1653 38.2157 12.9536 37.8831 12.873 37.6109C12.6915 36.996 12.5806 36.1895 12.4395 35.998C11.0484 35.7863 7.92339 35.2419 7.85282 33.8407C7.83266 33.4778 8.08468 33.1552 8.44758 33.0948C13.1149 32.3286 15.2117 27.5403 15.3024 27.3387C15.3024 27.3286 15.3125 27.3185 15.3226 27.3085C15.5746 26.8044 15.625 26.381 15.4839 26.0484C15.1411 25.252 13.6794 24.9698 13.0645 24.7177C11.4718 24.0927 11.25 23.3669 11.3508 22.873C11.5121 22.0161 12.8024 21.4819 13.5585 21.8347C14.1532 22.1169 14.6875 22.2581 15.1411 22.2581C15.4738 22.2581 15.6956 22.1774 15.8065 22.1169C15.6653 19.7077 15.3327 16.2702 16.1895 14.3448C18.4577 9.27419 23.256 8.87097 24.6673 8.87097C24.7278 8.87097 25.2823 8.86089 25.3427 8.86089C28.8407 8.86089 32.1976 10.6552 33.8407 14.3347C34.6976 16.2601 34.3649 19.6875 34.2238 22.1069C34.3347 22.1673 34.5161 22.2379 34.7984 22.248C35.2319 22.2278 35.7258 22.0867 36.2802 21.8246C36.6835 21.6331 37.248 21.6633 37.6512 21.8246C38.2863 22.0565 38.6895 22.5101 38.6996 23.0242C38.7097 23.6794 38.125 24.244 36.9657 24.6976C36.8246 24.7581 36.6532 24.8085 36.4718 24.869C35.8165 25.0806 34.8185 25.3931 34.5564 26.0282C34.4153 26.3609 34.4758 26.7843 34.7177 27.2883C34.7278 27.2984 34.7278 27.3085 34.7379 27.3185C34.8286 27.5202 36.9254 32.3085 41.5927 33.0746C41.996 33.1754 42.3085 33.629 42.0867 34.1633Z" fill="#FFFC00"/>
</g>
<rect x="1" y="1" width="48" height="49.6129" rx="24" stroke="white" stroke-width="2"/>
<defs>
<clipPath id="clip0_81_560">
<rect width="50" height="51.6129" rx="25" fill="white"/>
</clipPath>
</defs>
</svg>
