<svg width="50" height="50" viewBox="0 0 50 50" fill="none" xmlns="http://www.w3.org/2000/svg">
<g clip-path="url(#clip0_81_568)">
<path fill-rule="evenodd" clip-rule="evenodd" d="M5 0H45C47.7616 0 50 2.2384 50 5V45C50 47.7616 47.7616 50 45 50H5C2.2384 50 0 47.7616 0 45V5C0 2.2384 2.2384 0 5 0Z" fill="#010101"/>
<path fill-rule="evenodd" clip-rule="evenodd" d="M31.396 46C32.9174 46 34.1508 44.7766 34.1508 43.2676C34.1508 41.7586 32.9174 40.535 31.396 40.535H30.981C32.5024 40.535 33.7358 41.7586 33.7358 43.2676C33.7358 44.7766 32.5024 46 30.981 46H31.396Z" fill="#EE1D51"/>
<path fill-rule="evenodd" clip-rule="evenodd" d="M30.9434 40.535H30.5284C29.007 40.535 27.7734 41.7586 27.7734 43.2676C27.7734 44.7766 29.007 46 30.5284 46H30.9434C29.4218 46 28.1884 44.7766 28.1884 43.2676C28.1884 41.7586 29.4218 40.535 30.9434 40.535Z" fill="#66C8CF"/>
<path d="M30.9622 44.5962C31.7022 44.5962 32.302 44.0014 32.302 43.2676C32.302 42.5339 31.7022 41.939 30.9622 41.939C30.2223 41.939 29.6224 42.5339 29.6224 43.2676C29.6224 44.0014 30.2223 44.5962 30.9622 44.5962Z" fill="#010101"/>
<path fill-rule="evenodd" clip-rule="evenodd" d="M10 39.3V40.685H11.6224V45.9626H13.2454V40.7224H14.566L15.0188 39.3H10ZM23.283 39.3V40.685H24.9054V45.9626H26.5284V40.7224H27.849L28.3018 39.3H23.283ZM15.321 40.086C15.321 39.652 15.6752 39.3 16.1128 39.3C16.5508 39.3 16.9054 39.652 16.9054 40.086C16.9054 40.52 16.551 40.872 16.1128 40.872C15.6752 40.8718 15.321 40.52 15.321 40.086ZM15.321 41.4336H16.9054V45.9626H15.321V41.4336ZM17.5848 39.3V45.9626H19.1698V44.241L19.6604 43.7914L21.2074 46H22.9054L20.6788 42.781L22.6788 40.8344H20.7544L19.1698 42.4064V39.3H17.5848ZM34.6788 39.3V45.9626H36.264V44.241L36.7544 43.7914L38.3018 46H40L37.7734 42.781L39.7734 40.8344H37.849L36.264 42.4064V39.3H34.6788Z" fill="white"/>
<path fill-rule="evenodd" clip-rule="evenodd" d="M32.2334 16.2372C34.4222 17.801 37.1038 18.7212 39.9998 18.7212V13.151C39.4516 13.1512 38.905 13.0941 38.3688 12.9804V17.365C35.473 17.365 32.7918 16.4448 30.6024 14.881V26.248C30.6024 31.9344 25.9904 36.5438 20.3014 36.5438C18.1788 36.5438 16.2058 35.9024 14.5668 34.8024C16.4374 36.714 19.046 37.9 21.932 37.9C27.6214 37.9 32.2336 33.2906 32.2336 27.604V16.2372H32.2334ZM34.2454 10.6176C33.1268 9.39622 32.3924 7.81762 32.2334 6.07242V5.35602H30.6878C31.0768 7.57402 32.4038 9.46902 34.2454 10.6176ZM18.165 30.439C17.5401 29.62 17.2023 28.618 17.2038 27.5878C17.2038 24.987 19.3134 22.8784 21.916 22.8784C22.4009 22.8781 22.8831 22.9525 23.3454 23.099V17.4044C22.8052 17.3304 22.2601 17.2991 21.715 17.3106V21.743C21.2525 21.5965 20.7701 21.5221 20.285 21.5224C17.6824 21.5224 15.573 23.631 15.573 26.232C15.573 28.071 16.6274 29.6634 18.165 30.439Z" fill="#EE1D52"/>
<path fill-rule="evenodd" clip-rule="evenodd" d="M30.6025 14.881C32.7919 16.4448 35.4731 17.365 38.3689 17.365V12.9804C36.7525 12.6364 35.3215 11.792 34.2455 10.6176C32.4039 9.46902 31.0769 7.57402 30.6879 5.35602H26.6281V27.6038C26.6189 30.1974 24.5129 32.2974 21.9159 32.2974C20.3855 32.2974 19.0259 31.5684 18.1649 30.439C16.6273 29.6634 15.5729 28.071 15.5729 26.232C15.5729 23.631 17.6823 21.5224 20.2849 21.5224C20.7835 21.5224 21.2641 21.6 21.7149 21.743V17.3106C16.1259 17.426 11.6309 21.9904 11.6309 27.604C11.6309 30.4062 12.7503 32.9466 14.5669 34.8026C16.2059 35.9026 18.1789 36.544 20.3015 36.544C25.9905 36.544 30.6025 31.9344 30.6025 26.2482V14.881Z" fill="white"/>
<path fill-rule="evenodd" clip-rule="evenodd" d="M38.3688 12.9804V11.7948C36.9111 11.797 35.4822 11.389 34.2454 10.6174C35.3402 11.8154 36.7817 12.6415 38.3688 12.9804ZM30.6878 5.356C30.6506 5.14405 30.6221 4.93067 30.6024 4.7164V4H24.9968V26.248C24.9878 28.8414 22.882 30.9414 20.2848 30.9414C19.5222 30.9414 18.8024 30.7606 18.1648 30.439C19.0258 31.5684 20.3854 32.2974 21.9158 32.2974C24.5126 32.2974 26.6188 30.1974 26.628 27.6038V5.356H30.6878ZM21.715 17.3106V16.0484C21.2466 15.9844 20.7744 15.9524 20.3016 15.9526C14.612 15.9526 10 20.5622 10 26.248C10 29.8128 11.8126 32.9544 14.567 34.8024C12.7504 32.9464 11.631 30.406 11.631 27.6038C11.631 21.9904 16.1258 17.426 21.715 17.3106Z" fill="#69C9D0"/>
<path fill-rule="evenodd" clip-rule="evenodd" d="M30.9808 46C32.5022 46 33.7358 44.7766 33.7358 43.2676C33.7358 41.7586 32.5022 40.535 30.9808 40.535H30.9432C29.4218 40.535 28.1884 41.7586 28.1884 43.2676C28.1884 44.7766 29.4218 46 30.9432 46H30.9808ZM29.6224 43.2676C29.6224 42.5336 30.2224 41.939 30.9624 41.939C31.7018 41.939 32.3018 42.5336 32.3018 43.2676C32.3018 44.0016 31.7018 44.5966 30.9624 44.5966C30.2224 44.5964 29.6224 44.0016 29.6224 43.2676Z" fill="white"/>
</g>
<rect x="1" y="1" width="48" height="48" rx="24" stroke="white" stroke-width="2"/>
<defs>
<clipPath id="clip0_81_568">
<rect width="50" height="50" rx="25" fill="white"/>
</clipPath>
</defs>
</svg>
