<svg width="51" height="51" viewBox="0 0 51 51" fill="none" xmlns="http://www.w3.org/2000/svg">
<path d="M25.25 6.73334C36.823 6.73334 46.2917 14.2663 46.2917 23.5667C46.2917 32.8671 36.823 40.4 25.25 40.4C22.6409 40.4 20.1369 40.0213 17.8223 39.3479C11.6782 44.6083 4.20837 44.6083 4.20837 44.6083C9.11108 39.7056 9.88962 36.4021 9.99483 35.1396C6.41775 32.1306 4.20837 28.0485 4.20837 23.5667C4.20837 14.2663 13.6771 6.73334 25.25 6.73334Z" fill="#50DEAD"/>
<path d="M14.9177 18.5884V20.6134H17.5538V21.8052H14.9177V24.7292H13.3926V17.4016H18.0588V18.5884H14.9177ZM22.3799 21.9466L21.5871 19.7044C21.54 19.5866 21.4895 19.4485 21.4356 19.2903C21.3851 19.1321 21.3363 18.9604 21.2891 18.7752C21.242 18.9637 21.1915 19.1388 21.1376 19.3004C21.0871 19.4586 21.0383 19.5967 20.9912 19.7145L20.2034 21.9466H22.3799ZM24.9251 24.7292H23.7485C23.6172 24.7292 23.5095 24.6989 23.4253 24.6383C23.3445 24.5743 23.2839 24.4935 23.2435 24.3959L22.7486 22.997H19.8297L19.3348 24.3959C19.3011 24.48 19.2422 24.5575 19.158 24.6282C19.0739 24.6955 18.9678 24.7292 18.8399 24.7292H17.6531L20.5165 17.4016H22.0668L24.9251 24.7292ZM27.1183 20.4266H27.4163C27.6654 20.4266 27.8455 20.3491 27.9566 20.1943L29.81 17.7147C29.8975 17.5969 29.9935 17.5161 30.0978 17.4723C30.2022 17.4252 30.3301 17.4016 30.4816 17.4016H31.7946L29.4615 20.4064C29.31 20.6016 29.1535 20.7413 28.9919 20.8255C29.1097 20.8726 29.2158 20.9349 29.31 21.0124C29.4043 21.0864 29.4952 21.1857 29.5827 21.3103L31.9764 24.7292H30.6281C30.5406 24.7292 30.4648 24.7224 30.4008 24.709C30.3402 24.6955 30.2864 24.677 30.2392 24.6534C30.1921 24.6298 30.1517 24.6012 30.118 24.5676C30.0844 24.5305 30.0524 24.4884 30.0221 24.4413L28.1384 21.8052C28.0745 21.7143 27.9987 21.6503 27.9112 21.6133C27.8237 21.5729 27.7008 21.5527 27.5425 21.5527H27.1183V24.7292H25.6033V17.4016H27.1183V20.4266ZM34.1511 18.5884V20.472H36.5953V21.6184H34.1511V23.5424H37.2922V24.7292H32.626V17.4016H37.2922V18.5884H34.1511Z" fill="#F5FCFF"/>
<path d="M16.628 31.6743C16.6639 31.6743 16.6953 31.6889 16.7222 31.7181L16.9815 31.9975C16.784 32.2264 16.5438 32.4049 16.261 32.5328C15.9804 32.6607 15.6404 32.7247 15.2409 32.7247C14.8953 32.7247 14.581 32.6652 14.2982 32.5463C14.0154 32.4251 13.7742 32.2567 13.5744 32.0413C13.3746 31.8236 13.2198 31.5632 13.1098 31.2602C12.9998 30.9572 12.9448 30.6239 12.9448 30.2603C12.9448 29.8967 13.0021 29.5634 13.1165 29.2604C13.231 28.9574 13.3915 28.697 13.598 28.4793C13.8067 28.2616 14.0558 28.0933 14.3454 27.9743C14.6349 27.8531 14.9547 27.7925 15.3049 27.7925C15.6483 27.7925 15.9513 27.8475 16.2139 27.9575C16.4765 28.0675 16.7076 28.2167 16.9074 28.4053L16.6919 28.7049C16.6785 28.7273 16.6605 28.7464 16.6381 28.7621C16.6179 28.7756 16.5898 28.7823 16.5539 28.7823C16.5135 28.7823 16.4641 28.761 16.4058 28.7184C16.3474 28.6735 16.2711 28.6241 16.1768 28.5702C16.0826 28.5164 15.9647 28.4681 15.8233 28.4255C15.6819 28.3806 15.508 28.3581 15.3015 28.3581C15.0524 28.3581 14.8246 28.4019 14.6181 28.4894C14.4116 28.5747 14.2331 28.6993 14.0828 28.8631C13.9346 29.027 13.819 29.2267 13.736 29.4624C13.653 29.6981 13.6114 29.964 13.6114 30.2603C13.6114 30.5611 13.6541 30.8293 13.7394 31.0649C13.8269 31.3006 13.9447 31.5004 14.0929 31.6642C14.2432 31.8258 14.4194 31.9492 14.6214 32.0345C14.8257 32.1198 15.0456 32.1625 15.2813 32.1625C15.4249 32.1625 15.554 32.1546 15.6685 32.1389C15.7852 32.1209 15.8918 32.094 15.9883 32.0581C16.0871 32.0222 16.178 31.9773 16.261 31.9234C16.3463 31.8673 16.4305 31.8011 16.5135 31.7248C16.5517 31.6911 16.5898 31.6743 16.628 31.6743ZM24.0041 27.8464V32.6708H23.351V30.4758H20.7486V32.6708H20.0954V27.8464H20.7486V29.9977H23.351V27.8464H24.0041ZM30.1562 30.8798L29.3987 28.917C29.3762 28.8586 29.3527 28.7913 29.328 28.715C29.3033 28.6364 29.2797 28.5534 29.2573 28.4659C29.2101 28.6477 29.1619 28.7992 29.1125 28.9204L28.355 30.8798H30.1562ZM31.5163 32.6708H31.0113C30.953 32.6708 30.9058 32.6562 30.8699 32.6271C30.834 32.5979 30.8071 32.5609 30.7891 32.516L30.338 31.3511H28.1732L27.7221 32.516C27.7086 32.5564 27.6828 32.5923 27.6446 32.6237C27.6065 32.6551 27.5594 32.6708 27.5032 32.6708H26.9982L28.9273 27.8464H29.5872L31.5163 32.6708ZM37.2965 28.3952H35.7344V32.6708H35.0846V28.3952H33.5191V27.8464H37.2965V28.3952Z" fill="#F5FCFF"/>
</svg>
