<svg width="520" height="228" viewBox="0 0 520 228" fill="none" xmlns="http://www.w3.org/2000/svg">
<g clip-path="url(#clip0_81_446)">
<path d="M187.505 74.9629H0V139.074H7.10269V155.842L23.2014 139.074H187.505V74.9629Z" fill="#F0F0F0"/>
<path d="M182.297 81.2062H5.2085V132.495H182.297V81.2062Z" fill="white"/>
<path d="M106.133 96.6735H20.8696V99.3685H106.133V96.6735Z" fill="#F0F0F0"/>
<path d="M169.477 105.996H20.8696V108.691H169.477V105.996Z" fill="#F0F0F0"/>
<path d="M169.331 115.319H20.8696V118.014H169.331V115.319Z" fill="#F0F0F0"/>
<path d="M314.973 219.777C314.973 219.777 315.867 200.271 334.189 202.538L314.973 219.777Z" fill="#F0F0F0"/>
<path d="M309.796 201.214C314.86 201.214 318.966 196.938 318.966 191.663C318.966 186.388 314.86 182.112 309.796 182.112C304.731 182.112 300.625 186.388 300.625 191.663C300.625 196.938 304.731 201.214 309.796 201.214Z" fill="#F0F0F0"/>
<path d="M310.892 207.747H308.304V226.619H310.892V207.747Z" fill="#F0F0F0"/>
<path d="M400.863 189.916C441.792 189.916 474.971 155.358 474.971 112.73C474.971 70.1009 441.792 35.5435 400.863 35.5435C359.934 35.5435 326.754 70.1009 326.754 112.73C326.754 155.358 359.934 189.916 400.863 189.916Z" fill="#3F3D56"/>
<path d="M354.207 118.926C356.048 116.631 358.349 114.785 360.95 113.518C363.551 112.251 366.387 111.594 369.258 111.594C372.129 111.594 374.965 112.251 377.565 113.518C380.166 114.785 382.468 116.631 384.309 118.926C387.427 115.825 389.592 111.831 390.531 107.449C391.47 103.067 391.14 98.4932 389.583 94.3062C388.026 90.1193 385.312 86.5072 381.785 83.9267C378.257 81.3463 374.073 79.9133 369.763 79.8092C365.454 79.705 361.211 80.9342 357.572 83.3415C353.933 85.7487 351.061 89.2258 349.319 93.333C347.578 97.4402 347.044 101.993 347.787 106.416C348.53 110.839 350.515 114.933 353.492 118.181C353.725 118.435 353.963 118.683 354.207 118.926Z" fill="white"/>
<path d="M413.058 118.926C414.898 116.631 417.2 114.785 419.801 113.518C422.402 112.251 425.238 111.595 428.109 111.595C430.98 111.595 433.816 112.251 436.416 113.518C439.017 114.785 441.319 116.631 443.159 118.926C446.278 115.825 448.443 111.831 449.382 107.449C450.321 103.067 449.991 98.4932 448.434 94.3062C446.877 90.1193 444.163 86.5072 440.635 83.9267C437.107 81.3463 432.924 79.9133 428.614 79.8092C424.305 79.705 420.062 80.9342 416.423 83.3415C412.784 85.7487 409.912 89.2258 408.17 93.333C406.428 97.4402 405.895 101.993 406.638 106.416C407.381 110.839 409.366 114.933 412.343 118.181C412.575 118.435 412.814 118.683 413.058 118.926Z" fill="white"/>
<path d="M361.822 102.584C365.963 102.584 369.32 99.0874 369.32 94.7746C369.32 90.4617 365.963 86.9654 361.822 86.9654C357.681 86.9654 354.324 90.4617 354.324 94.7746C354.324 99.0874 357.681 102.584 361.822 102.584Z" fill="#3F3D56"/>
<path d="M420.671 102.584C424.812 102.584 428.169 99.0874 428.169 94.7746C428.169 90.4617 424.812 86.9654 420.671 86.9654C416.53 86.9654 413.173 90.4617 413.173 94.7746C413.173 99.0874 416.53 102.584 420.671 102.584Z" fill="#3F3D56"/>
<path d="M347.461 141.107C352.276 141.107 356.18 137.041 356.18 132.026C356.18 127.011 352.276 122.945 347.461 122.945C342.646 122.945 338.743 127.011 338.743 132.026C338.743 137.041 342.646 141.107 347.461 141.107Z" fill="#50DEAD"/>
<path d="M447.725 141.107C452.541 141.107 456.444 137.041 456.444 132.026C456.444 127.011 452.541 122.945 447.725 122.945C442.91 122.945 439.007 127.011 439.007 132.026C439.007 137.041 442.91 141.107 447.725 141.107Z" fill="#50DEAD"/>
<path d="M397.593 113.864L391.054 143.377L401.952 132.027L397.593 113.864Z" fill="#50DEAD"/>
<path d="M431.192 227.374L423.768 220.884L423.941 227.374H421.636L421.451 220.512L411.428 227.374H407.232L421.377 217.69L420.828 197.358L420.419 182.002L422.719 181.936L423.135 197.358L423.682 217.672L434.777 227.374H431.192Z" fill="#3F3D56"/>
<path d="M396.315 227.374L388.891 220.884L389.064 227.374H386.765L386.58 220.512L376.556 227.374H372.36L386.5 217.69L385.952 197.358L385.543 182.002L387.848 181.936L388.263 197.358L388.805 217.672L399.9 227.374H396.315Z" fill="#3F3D56"/>
<path d="M401.953 29.8679C399.919 29.8679 398.125 31.5131 396.926 34.04C395.869 30.2402 393.648 27.5978 391.054 27.5978C390.878 27.616 390.703 27.6466 390.531 27.6893C389.534 23.6324 387.217 20.7872 384.515 20.7872C380.904 20.7872 377.976 25.8692 377.976 32.1381C377.976 38.407 380.904 43.489 384.515 43.489C384.692 43.4708 384.867 43.4402 385.039 43.3974C386.036 47.4544 388.353 50.2996 391.054 50.2996C393.088 50.2996 394.882 48.6544 396.081 46.1275C397.138 49.9273 399.359 52.5697 401.953 52.5697C405.564 52.5697 408.492 47.4877 408.492 41.2188C408.492 34.9499 405.564 29.8679 401.953 29.8679Z" fill="#3F3D56"/>
<path d="M330.991 115.131L290.167 108.235C288.11 107.887 286.015 107.539 283.952 107.841C281.888 108.144 279.822 109.202 278.77 111.076C278.264 111.976 278.019 113.01 278.064 114.052C278.109 115.094 278.441 116.101 279.022 116.951C279.603 117.8 280.407 118.458 281.338 118.843C282.269 119.228 283.287 119.325 284.269 119.122C282.041 119.047 279.699 118.997 277.721 120.07C275.744 121.142 274.344 123.748 275.308 125.842C275.597 126.42 275.989 126.936 276.461 127.362C277.95 128.752 279.785 129.674 281.755 130.022C283.725 130.37 285.75 130.129 287.595 129.329C286.092 131.574 283.11 131.907 280.53 132.427C277.95 132.947 274.968 134.466 274.872 137.201C274.764 140.274 278.276 141.907 281.166 142.533C296.601 145.841 312.623 144.481 327.34 138.613C328.994 138.021 330.559 137.188 331.99 136.14C333.594 134.872 334.813 133.149 335.501 131.177C336.189 129.206 336.317 127.07 335.87 125.025C335.423 122.98 334.419 121.112 332.979 119.646C331.539 118.179 329.724 117.176 327.751 116.756" fill="#3F3D56"/>
<path d="M507.201 149.983C500.463 135.146 489.791 122.626 476.444 113.901C474.995 112.881 473.415 112.078 471.751 111.516C469.814 110.944 467.759 110.964 465.833 111.576C463.906 112.188 462.19 113.366 460.89 114.967C459.589 116.568 458.759 118.526 458.499 120.606C458.239 122.686 458.56 124.8 459.424 126.695L456.229 124.974C462.643 137.684 469.057 150.393 475.471 163.103C476.441 165.024 477.433 166.977 478.905 168.514C480.378 170.05 482.431 171.134 484.502 170.883C485.323 170.787 486.111 170.487 486.798 170.008C487.486 169.53 488.053 168.886 488.452 168.132C488.851 167.377 489.071 166.534 489.093 165.673C489.114 164.812 488.937 163.958 488.576 163.183C489.476 164.505 490.66 165.589 492.033 166.351C494.045 167.352 496.886 166.952 497.913 164.891C498.183 164.303 498.344 163.667 498.387 163.017C498.559 160.943 498.163 158.861 497.246 157.012C496.329 155.163 494.928 153.622 493.205 152.567C495.831 152.469 497.879 154.751 499.828 156.587C501.778 158.422 504.736 159.991 506.892 158.427C509.315 156.67 508.458 152.765 507.201 149.983Z" fill="#3F3D56"/>
<path d="M33.5132 0H304.135V92.5302H293.884V116.73L270.649 92.5302H33.5132V0Z" fill="#CACACA"/>
<path d="M296.618 9.01056H41.0304V83.0347H296.618V9.01056Z" fill="white"/>
<path d="M184.642 30.6224H61.5836V34.512H184.642V30.6224Z" fill="#50DEAD"/>
<path d="M276.065 44.0778H61.5836V47.9674H276.065V44.0778Z" fill="#50DEAD"/>
<path d="M275.855 57.5332H61.5836V61.4229H275.855V57.5332Z" fill="#50DEAD"/>
<path d="M518.663 228H289.66C289.5 228 289.348 227.934 289.235 227.817C289.122 227.699 289.059 227.54 289.059 227.374C289.059 227.208 289.122 227.049 289.235 226.931C289.348 226.814 289.5 226.748 289.66 226.748H518.663C518.822 226.748 518.975 226.814 519.088 226.931C519.2 227.049 519.264 227.208 519.264 227.374C519.264 227.54 519.2 227.699 519.088 227.817C518.975 227.934 518.822 228 518.663 228Z" fill="#CACACA"/>
</g>
<defs>
<clipPath id="clip0_81_446">
<rect width="519.264" height="228" fill="white"/>
</clipPath>
</defs>
</svg>
