<svg width="50" height="50" viewBox="0 0 50 50" fill="none" xmlns="http://www.w3.org/2000/svg">
<g clip-path="url(#clip0_81_563)">
<path d="M25.0003 49.9996C38.8073 49.9996 50 38.8068 50 24.9998C50 11.1928 38.8073 0 25.0003 0C11.1933 0 0.000488281 11.1928 0.000488281 24.9998C0.000488281 38.8068 11.1933 49.9996 25.0003 49.9996Z" fill="#55ACEE"/>
<path d="M40.3135 17.9666C39.2421 18.4417 38.0897 18.763 36.8811 18.9065C38.1151 18.1672 39.0621 16.9974 39.5091 15.6012C38.3544 16.2861 37.075 16.783 35.7144 17.0508C34.6244 15.8899 33.0713 15.1644 31.3515 15.1644C28.052 15.1644 25.3759 17.8405 25.3759 21.1401C25.3759 21.6085 25.4289 22.0643 25.5314 22.502C20.5652 22.2529 16.1617 19.874 13.2142 16.2576C12.7 17.14 12.405 18.1672 12.405 19.2621C12.405 21.3348 13.4607 23.1646 15.0632 24.236C14.0841 24.2052 13.1621 23.9365 12.3568 23.4877C12.3564 23.5131 12.3564 23.5385 12.3564 23.5635C12.3564 26.4588 14.417 28.8738 17.1502 29.4224C16.6493 29.5596 16.1203 29.6323 15.5762 29.6323C15.1902 29.6323 14.8163 29.5953 14.4518 29.5258C15.2121 31.8993 17.4185 33.627 20.034 33.6756C17.9884 35.2786 15.4122 36.2336 12.6117 36.2336C12.1304 36.2336 11.6536 36.2055 11.187 36.1498C13.8301 37.846 16.9719 38.8348 20.3463 38.8348C31.3377 38.8348 37.3486 29.7294 37.3486 21.8322C37.3486 21.5732 37.3428 21.3152 37.3312 21.0594C38.4997 20.2171 39.5126 19.165 40.3135 17.9666Z" fill="#F1F2F2"/>
</g>
<rect x="1" y="1" width="48" height="48" rx="24" stroke="#F8F8F8" stroke-width="2"/>
<defs>
<clipPath id="clip0_81_563">
<rect width="50" height="50" rx="25" fill="white"/>
</clipPath>
</defs>
</svg>
