<svg width="24" height="24" viewBox="0 0 24 24" fill="none" xmlns="http://www.w3.org/2000/svg">
<path fill-rule="evenodd" clip-rule="evenodd" d="M4.75 3.99994C2.12665 3.99994 0 6.12659 0 8.74994V16.0642C0 18.6876 2.12665 20.8142 4.75 20.8142H13.0214C15.6084 20.8142 17.7124 18.7461 17.7702 16.1729L20.6899 18.4438C21.8394 19.3379 23.5143 18.5187 23.5143 17.0624V7.75172C23.5143 6.29546 21.8394 5.4763 20.6899 6.37035L17.7702 8.64122C17.7124 6.06808 15.6084 3.99994 13.0214 3.99994H4.75ZM17.7714 10.5406V14.2736L21.6108 17.2598C21.775 17.3875 22.0143 17.2705 22.0143 17.0624V7.75172C22.0143 7.54368 21.775 7.42666 21.6108 7.55438L17.7714 10.5406ZM16.2714 9.80694V8.74994C16.2714 6.95501 14.8164 5.49994 13.0214 5.49994H4.75C2.95508 5.49994 1.5 6.95502 1.5 8.74994V16.0642C1.5 17.8591 2.95508 19.3142 4.75 19.3142H13.0214C14.8164 19.3142 16.2714 17.8591 16.2714 16.0642V15.0072V14.6404V10.1737V9.80694Z" fill="#007AFF"/>
</svg>
