<svg width="56" height="52" viewBox="0 0 56 52" fill="none" xmlns="http://www.w3.org/2000/svg">
<g clip-path="url(#clip0_81_549)">
<path d="M14.3566 44.0538L15.2694 44.4695C19.0736 46.5474 23.3339 47.5172 27.5944 47.5172C40.9843 47.5172 51.9397 37.5428 51.9397 25.3518C51.9397 19.5334 49.3529 13.8535 44.7883 9.6974C40.2235 5.54133 34.137 3.18634 27.5944 3.18634C14.2045 3.18634 3.24897 13.1608 3.40123 25.4904C3.40123 29.6463 4.77065 33.6639 7.05294 37.1271L7.66152 37.9584L5.22719 46.132L14.3566 44.0538Z" fill="#00E676"/>
<path d="M46.847 7.48082C41.6736 2.63223 34.5222 0 27.2186 0C11.6986 0 -0.778409 11.4983 -0.626373 25.4902C-0.626373 29.9233 0.743046 34.218 3.02556 38.0968L-0.930664 51.2576L13.8287 47.7942C17.9369 49.8723 22.5015 50.8421 27.0665 50.8421C42.4344 50.8421 54.9114 39.3436 54.9114 25.3519C54.9114 18.5636 52.0203 12.191 46.8472 7.48082H46.847ZM27.2186 46.5476C23.1103 46.5476 19.002 45.578 15.5024 43.6385L14.5895 43.2229L5.76439 45.3008L8.04669 37.4045L7.4381 36.5732C0.743046 26.7374 3.93843 13.7148 14.8938 7.61925C25.8491 1.52385 39.9999 4.43312 46.6949 14.4076C53.3898 24.382 50.1944 37.2657 39.2393 43.3613C35.7394 45.4392 31.4791 46.5474 27.2186 46.5474V46.5476ZM40.6085 31.1705L38.9347 30.4778C38.9347 30.4778 36.5004 29.508 34.9787 28.8153C34.8265 28.8153 34.6744 28.6767 34.5222 28.6767C34.0656 28.6767 33.7614 28.8153 33.4571 28.9539C33.4571 28.9539 33.3048 29.0924 31.1748 31.3089C31.0225 31.586 30.7182 31.7246 30.4139 31.7246H30.2617C30.1096 31.7246 29.8054 31.586 29.6531 31.4475L28.8923 31.1703C27.2185 30.4778 25.6971 29.6464 24.4797 28.5383C24.1754 28.2612 23.7189 27.9842 23.4146 27.7071C22.3495 26.7374 21.2843 25.629 20.5237 24.3822L20.3715 24.1051C20.2194 23.9667 20.2194 23.8281 20.0672 23.551C20.0672 23.274 20.0672 22.997 20.2194 22.8583C20.2194 22.8583 20.828 22.1656 21.2843 21.7502C21.5888 21.4729 21.7409 21.0574 22.0452 20.7804C22.3495 20.3647 22.5017 19.8106 22.3495 19.395C22.1974 18.7023 20.3715 14.9618 19.9151 14.1307C19.6106 13.715 19.3065 13.5766 18.85 13.438H17.1763C16.8718 13.438 16.5677 13.5766 16.2632 13.5766L16.1109 13.715C15.8067 13.8537 15.5024 14.1307 15.1981 14.2691C14.8938 14.5464 14.7415 14.8232 14.4372 15.1005C13.3721 16.3473 12.7635 17.8711 12.7635 19.395C12.7635 20.5031 13.0678 21.6115 13.5244 22.5813L13.6766 22.997C15.046 25.629 16.8718 27.9842 19.3065 30.0621L19.9151 30.6162C20.3715 31.0319 20.828 31.3089 21.1323 31.7244C24.3277 34.2182 27.9794 36.0191 32.0876 36.9888C32.5442 37.1273 33.1528 37.1273 33.6093 37.2659H35.1308C35.8916 37.2659 36.8045 36.9888 37.4133 36.7118C37.8696 36.4348 38.1739 36.4347 38.4782 36.1577L38.7827 35.8805C39.087 35.6034 39.3913 35.465 39.6956 35.1879C39.9999 34.9109 40.3042 34.6339 40.4564 34.3566C40.7607 33.8025 40.9127 33.1098 41.065 32.4173V31.4475C41.065 31.4475 40.9127 31.3089 40.6085 31.1705Z" fill="white"/>
</g>
<defs>
<clipPath id="clip0_81_549">
<rect width="55.8421" height="51.2576" fill="white"/>
</clipPath>
</defs>
</svg>
