<svg width="746" height="561" viewBox="0 0 746 561" fill="none" xmlns="http://www.w3.org/2000/svg">
<path d="M20.7493 287.103C49.4737 222.601 157.21 261.629 275.224 193.918C377.433 135.26 363.415 66.975 452.205 43.3557C517.07 26.0872 598.304 41.6948 656.487 94.4342C720.647 152.581 727.449 229.717 728.514 248.614C733.382 333.348 688.861 392.481 673.011 412.875C607.699 496.862 511.155 515.248 464.846 524.091C290.875 557.255 73.8359 492.325 25.7619 364.136C19.4522 347.358 7.78626 316.229 20.7493 287.103Z" fill="#E4FEF5"/>
<g clip-path="url(#clip0_81_412)">
<path d="M677.219 221.346H676.639C670.335 221.339 664.292 218.831 659.834 214.374C655.376 209.916 652.869 203.872 652.862 197.568V189.449H582.109V188.289H654.022V197.568C654.029 203.464 656.335 209.125 660.45 213.348C664.566 217.57 670.166 220.021 676.06 220.179V188.289H692.878C695.184 188.287 697.395 187.369 699.026 185.738C700.657 184.108 701.574 181.896 701.577 179.59V90.859C701.574 88.5527 700.657 86.3415 699.026 84.7107C697.395 83.0798 695.184 82.1625 692.878 82.1599H471.34C469.034 82.1625 466.823 83.0798 465.192 84.7107C463.561 86.3415 462.644 88.5527 462.641 90.859V155.233H461.481V90.859C461.484 88.2451 462.524 85.7392 464.372 83.8909C466.22 82.0426 468.726 81.0029 471.34 81H692.878C695.492 81.0029 697.998 82.0426 699.846 83.8909C701.694 85.7392 702.734 88.2451 702.737 90.859V179.59C702.734 182.204 701.694 184.71 699.846 186.558C697.998 188.407 695.492 189.446 692.878 189.449H677.219V221.346Z" fill="#CCCCCC"/>
<path d="M656.33 110.293C656.257 108.422 655.463 106.652 654.113 105.353C652.764 104.055 650.965 103.329 649.092 103.328H515.126C513.203 103.328 511.359 104.092 510 105.451C508.64 106.811 507.876 108.654 507.876 110.577C507.876 112.5 508.64 114.344 510 115.703C511.359 117.063 513.203 117.826 515.126 117.826H649.092C651.014 117.824 652.856 117.059 654.215 115.7C655.574 114.341 656.339 112.499 656.341 110.577C656.343 110.482 656.339 110.387 656.33 110.293Z" fill="#CCCCCC"/>
<path d="M656.33 134.65C656.257 132.779 655.463 131.009 654.113 129.711C652.764 128.412 650.965 127.686 649.092 127.685H515.126C513.203 127.685 511.359 128.449 510 129.809C508.64 131.168 507.876 133.012 507.876 134.935C507.876 136.857 508.64 138.701 510 140.061C511.359 141.42 513.203 142.184 515.126 142.184H649.092C651.014 142.181 652.856 141.417 654.215 140.058C655.574 138.699 656.339 136.856 656.341 134.935C656.343 134.84 656.339 134.745 656.33 134.65Z" fill="#CCCCCC"/>
<path d="M656.33 159.008C656.257 157.137 655.463 155.367 654.113 154.068C652.764 152.77 650.965 152.044 649.092 152.043H515.126C514.063 152.043 513.013 152.277 512.051 152.728C511.089 153.179 510.238 153.836 509.558 154.653C509.26 155.014 508.996 155.402 508.77 155.812H572.83C575.136 155.815 577.347 156.733 578.978 158.363C580.609 159.994 581.526 162.205 581.529 164.512V166.541H649.092C651.014 166.539 652.856 165.774 654.215 164.415C655.574 163.056 656.339 161.214 656.342 159.292C656.343 159.197 656.34 159.102 656.33 159.008Z" fill="#CCCCCC"/>
<path d="M199.219 478.089C199.534 478.348 199.85 478.596 200.173 478.84H279.859C280.453 478.596 281.044 478.346 281.632 478.089C290.045 474.428 297.875 469.553 304.873 463.62C309.519 459.683 313.794 455.619 316.893 451.81C321.216 446.495 325.198 440.702 327.05 434.102C328.898 427.503 328.346 419.937 324.218 414.464C322.939 412.781 321.368 411.342 319.578 410.216C319.282 410.028 318.981 409.848 318.673 409.679C313.537 406.914 307.546 406.194 301.901 407.662C293.919 409.724 287.286 415.482 282.553 422.236C277.82 428.986 274.747 436.739 271.719 444.406C268.647 430.722 259.342 418.465 246.774 412.233C234.209 406.002 218.598 406.077 206.3 412.827C202.43 414.963 198.935 417.717 195.951 420.978C195.654 421.297 195.365 421.624 195.079 421.955C189.081 428.9 185.328 437.795 185.02 446.968C184.882 452.891 186.087 458.768 188.547 464.158C191.006 469.549 194.655 474.311 199.219 478.089Z" fill="#F2F2F2"/>
<path d="M276.674 478.84H277.801C277.816 478.588 277.835 478.341 277.857 478.089C278.251 473.175 279.076 468.306 280.321 463.537C283.179 452.649 288.061 442.396 294.712 433.314C301.343 424.202 309.704 416.485 319.316 410.603C319.386 410.563 319.446 410.507 319.492 410.44C319.537 410.373 319.567 410.296 319.579 410.216C319.597 410.111 319.585 410.003 319.545 409.905C319.504 409.806 319.436 409.721 319.349 409.66C319.262 409.599 319.159 409.563 319.053 409.558C318.947 409.553 318.841 409.578 318.748 409.63C318.723 409.645 318.698 409.661 318.673 409.679C313.228 412.998 308.172 416.919 303.603 421.369C295.43 429.342 288.839 438.79 284.179 449.214C280.068 458.344 277.55 468.11 276.734 478.089C276.711 478.341 276.693 478.592 276.674 478.84Z" fill="white"/>
<path d="M195.079 421.955C195.088 421.959 195.097 421.961 195.106 421.962C195.928 422.112 196.755 422.27 197.574 422.439C204.296 423.82 210.876 425.818 217.23 428.408C223.568 430.994 229.665 434.137 235.449 437.799C241.24 441.458 246.701 445.616 251.77 450.224C256.839 454.826 261.488 459.87 265.664 465.295C268.785 469.36 271.623 473.634 274.157 478.089C274.3 478.337 274.439 478.588 274.578 478.84H275.866C275.731 478.588 275.592 478.337 275.449 478.089C272.383 472.631 268.868 467.438 264.939 462.564C260.595 457.17 255.779 452.173 250.549 447.633C245.352 443.118 239.774 439.061 233.878 435.507C227.958 431.939 221.733 428.902 215.277 426.432C209.012 424.037 202.544 422.212 195.951 420.978C195.767 420.944 195.587 420.91 195.402 420.876C194.7 420.749 194.4 421.808 195.079 421.955Z" fill="white"/>
<path d="M217.488 461.166C225.335 460.087 233.304 460.267 241.094 461.699C248.862 463.119 256.361 465.741 263.321 469.47C267.233 471.572 270.945 474.025 274.413 476.798C274.98 477.251 274.178 478.043 273.616 477.595C267.531 472.755 260.71 468.92 253.412 466.238C246.172 463.56 238.562 462.016 230.85 461.661C226.487 461.46 222.114 461.658 217.787 462.253C217.643 462.288 217.492 462.266 217.363 462.193C217.234 462.12 217.138 462.001 217.094 461.86C217.055 461.715 217.075 461.562 217.148 461.432C217.222 461.302 217.344 461.207 217.488 461.166H217.488Z" fill="white"/>
<path d="M572.25 155.812H350.712C348.099 155.816 345.593 156.856 343.745 158.704C341.897 160.552 340.857 163.058 340.853 165.672V254.403C340.857 257.016 341.897 259.522 343.745 261.37C345.593 263.218 348.099 264.258 350.712 264.262H366.371V296.158H366.951C373.255 296.152 379.299 293.645 383.756 289.187C388.214 284.729 390.722 278.685 390.728 272.381V264.262H572.25C574.864 264.258 577.369 263.218 579.217 261.37C581.065 259.522 582.105 257.016 582.109 254.403V165.672C582.105 163.058 581.065 160.552 579.217 158.704C577.369 156.856 574.864 155.816 572.25 155.812ZM580.949 254.403C580.946 256.709 580.029 258.92 578.398 260.551C576.767 262.182 574.556 263.099 572.25 263.102H389.568V272.381C389.56 278.277 387.254 283.937 383.139 288.16C379.024 292.382 373.424 294.833 367.53 294.993V263.102H350.712C348.406 263.099 346.195 262.182 344.564 260.551C342.933 258.92 342.016 256.709 342.013 254.403V165.672C342.016 163.365 342.933 161.154 344.564 159.523C346.195 157.893 348.406 156.975 350.712 156.972H572.25C574.556 156.975 576.767 157.893 578.398 159.523C580.029 161.154 580.946 163.365 580.949 165.672V254.403Z" fill="#3F3D56"/>
<path d="M528.464 178.14H394.498C392.625 178.141 390.826 178.867 389.477 180.166C388.127 181.464 387.333 183.234 387.26 185.105C387.25 185.2 387.247 185.295 387.249 185.39C387.251 187.311 388.016 189.154 389.375 190.513C390.734 191.871 392.576 192.636 394.498 192.639H528.464C530.387 192.639 532.231 191.875 533.59 190.516C534.95 189.156 535.714 187.312 535.714 185.39C535.714 183.467 534.95 181.623 533.59 180.264C532.231 178.904 530.387 178.14 528.464 178.14Z" fill="#50DEAD"/>
<path d="M528.464 202.498H394.498C392.625 202.499 390.826 203.225 389.477 204.523C388.127 205.822 387.333 207.592 387.26 209.463C387.25 209.557 387.247 209.652 387.249 209.747C387.251 211.669 388.016 213.511 389.375 214.87C390.734 216.229 392.576 216.994 394.498 216.996H528.464C530.387 216.996 532.231 216.233 533.59 214.873C534.95 213.514 535.714 211.67 535.714 209.747C535.714 207.824 534.95 205.981 533.59 204.621C532.231 203.262 530.387 202.498 528.464 202.498Z" fill="#50DEAD"/>
<path d="M528.464 226.855H394.498C392.625 226.856 390.826 227.582 389.477 228.881C388.127 230.179 387.333 231.949 387.26 233.82C387.25 233.915 387.247 234.01 387.249 234.105C387.251 236.026 388.016 237.869 389.375 239.228C390.734 240.587 392.576 241.351 394.498 241.354H528.464C530.387 241.354 532.231 240.59 533.59 239.231C534.95 237.871 535.714 236.027 535.714 234.105C535.714 232.182 534.95 230.338 533.59 228.979C532.231 227.619 530.387 226.855 528.464 226.855Z" fill="#50DEAD"/>
<path d="M315.328 355.15C315.067 355.15 314.806 355.134 314.547 355.101C313.655 354.992 312.796 354.695 312.026 354.23C311.256 353.766 310.594 353.144 310.081 352.405C309.569 351.666 309.218 350.828 309.052 349.944C308.886 349.061 308.909 348.152 309.119 347.278C309.169 347.075 309.229 346.874 309.299 346.678L289.949 321.906C289.098 320.807 288.623 319.462 288.596 318.072C288.568 316.682 288.99 315.32 289.798 314.188L296.576 304.774L305.435 311.609L301.876 317.723L315.97 342.427C316.254 342.454 316.535 342.499 316.812 342.565C318.33 342.929 319.662 343.839 320.555 345.12C321.449 346.401 321.841 347.965 321.658 349.516C321.475 351.067 320.73 352.497 319.563 353.535C318.397 354.574 316.89 355.148 315.328 355.15L315.328 355.15Z" fill="#A0616A"/>
<path d="M348.815 472.529L355.925 472.529L359.307 445.104L348.813 445.105L348.815 472.529Z" fill="#A0616A"/>
<path d="M369.637 479.13L347.291 479.131L347.291 470.498L361.003 470.497C362.137 470.497 363.259 470.72 364.307 471.154C365.354 471.588 366.306 472.224 367.108 473.025C367.909 473.827 368.545 474.779 368.979 475.826C369.413 476.874 369.637 477.996 369.637 479.13Z" fill="#2F2E41"/>
<path d="M290.24 472.529L297.351 472.529L300.733 445.104L290.239 445.105L290.24 472.529Z" fill="#A0616A"/>
<path d="M311.063 479.13L288.717 479.131L288.717 470.498L302.429 470.497C303.562 470.497 304.685 470.72 305.733 471.154C306.78 471.588 307.732 472.224 308.534 473.025C309.335 473.827 309.971 474.779 310.405 475.826C310.839 476.874 311.063 477.996 311.063 479.13Z" fill="#2F2E41"/>
<path d="M294.604 306.11L310.567 312.176L314.464 301.35C314.982 299.913 314.974 298.338 314.444 296.906C313.913 295.473 312.892 294.274 311.563 293.521C310.219 292.759 308.646 292.503 307.129 292.799C305.612 293.095 304.251 293.924 303.292 295.136L294.604 306.11Z" fill="#50DEAD"/>
<path d="M347.55 450.391C346.913 450.391 346.294 450.178 345.791 449.787C345.288 449.395 344.929 448.848 344.771 448.23C336.811 417.777 328.729 402.513 320.062 384.862C319.845 384.422 319.494 384.063 319.059 383.836C318.624 383.61 318.128 383.528 317.643 383.602C317.158 383.677 316.71 383.905 316.363 384.252C316.016 384.599 315.789 385.048 315.715 385.533L304.973 447.615C304.865 448.307 304.51 448.937 303.973 449.387C303.436 449.837 302.753 450.077 302.053 450.061L286.103 449.672C285.716 449.664 285.335 449.578 284.982 449.418C284.63 449.259 284.313 449.029 284.052 448.744C283.776 448.47 283.564 448.138 283.433 447.772C283.303 447.406 283.256 447.015 283.296 446.629C290.519 398.989 296.207 355.867 307.145 342.712C307.448 342.425 307.795 342.189 308.174 342.012L307.842 341.961C307.747 341.947 307.495 341.908 307.491 341.654L307.488 341.409L307.738 341.361C308.136 341.347 308.534 341.407 308.91 341.538L333.873 345.38C334.565 345.486 335.194 345.84 335.644 346.376C336.093 346.912 336.333 347.594 336.317 348.293C337.674 354.642 339.754 364.225 339.94 364.697C353.259 390.018 358.427 409.957 363.799 444.005C363.91 444.727 363.744 445.465 363.334 446.069C362.924 446.674 362.3 447.101 361.588 447.264L348.201 450.318C347.987 450.366 347.769 450.391 347.55 450.391Z" fill="#2F2E41"/>
<path d="M333.542 349.531C333.318 349.531 333.094 349.505 332.876 349.453L308.299 343.607C307.923 343.519 307.568 343.354 307.257 343.124C306.946 342.894 306.686 342.602 306.492 342.268C306.293 341.921 306.165 341.538 306.116 341.141C306.068 340.744 306.101 340.342 306.212 339.957C308.862 330.769 305.387 319.379 301.237 308.44C300.709 305.241 301.226 301.957 302.711 299.075C304.197 296.193 306.571 293.866 309.483 292.44L309.55 292.408L322.453 293.059C324.572 293.615 326.537 294.643 328.201 296.068C329.865 297.492 331.185 299.275 332.061 301.282C337.034 312.922 338.459 327.858 336.414 346.944C336.339 347.654 336.004 348.311 335.474 348.788C334.943 349.266 334.255 349.53 333.542 349.531L333.542 349.531Z" fill="#50DEAD"/>
<path d="M336.848 322.962C335.536 322.964 334.256 322.557 333.186 321.798L323.667 315.013L330.459 306.121L336.59 309.651L361.227 295.438C361.251 295.155 361.296 294.873 361.359 294.596C361.648 293.368 362.295 292.253 363.217 291.392C364.14 290.531 365.297 289.963 366.542 289.76C367.787 289.557 369.065 289.727 370.213 290.25C371.361 290.773 372.329 291.624 372.993 292.697C373.657 293.77 373.989 295.015 373.945 296.276C373.902 297.537 373.485 298.757 372.748 299.781C372.011 300.805 370.988 301.588 369.806 302.03C368.624 302.473 367.338 302.555 366.11 302.266C365.907 302.217 365.706 302.158 365.509 302.089L340.76 321.613C339.645 322.489 338.266 322.964 336.848 322.962Z" fill="#A0616A"/>
<path d="M320.647 317.782L334.768 308.179L328.132 298.78C327.251 297.532 325.957 296.636 324.479 296.25C323 295.863 321.433 296.012 320.054 296.669C318.659 297.334 317.548 298.476 316.921 299.889C316.294 301.302 316.193 302.892 316.636 304.373L320.647 317.782Z" fill="#50DEAD"/>
<path d="M313.856 287.588C321.723 287.588 328.1 281.211 328.1 273.344C328.1 265.478 321.723 259.1 313.856 259.1C305.989 259.1 299.612 265.478 299.612 273.344C299.612 281.211 305.989 287.588 313.856 287.588Z" fill="#A0616A"/>
<path d="M315.161 287.918C313.023 287.908 311.374 285.658 311.47 283.522C311.566 281.386 313 279.507 314.729 278.248C316.457 276.99 318.484 276.223 320.411 275.298C322.338 274.373 324.249 273.219 325.438 271.442C326.157 270.28 326.586 268.962 326.69 267.599C326.793 266.236 326.567 264.868 326.032 263.611C324.925 261.096 323.023 259.013 320.619 257.681C317.048 255.591 312.821 254.922 308.779 255.809C304.737 256.696 301.177 259.073 298.809 262.466L296.369 269.111C293.882 272.101 293.488 276.542 295.016 280.118C296.545 283.694 299.8 286.385 303.473 287.664C307.199 288.861 311.188 288.981 314.979 288.009" fill="#2F2E41"/>
<path d="M299.771 266.591C298.795 265.086 297.464 263.845 295.895 262.976C294.326 262.107 292.568 261.638 290.774 261.609C288.981 261.58 287.209 261.993 285.613 262.811C284.017 263.629 282.647 264.827 281.623 266.3C279.91 268.765 279.287 271.803 278.109 274.564C275.975 279.509 272.094 283.494 267.208 285.759C271.486 286.511 275.749 284.335 279.169 281.657C282.59 278.979 285.598 275.71 289.429 273.662C292.442 272.056 295.828 271.279 299.24 271.408" fill="#2F2E41"/>
<path d="M419.664 480H198.706C198.552 480 198.404 479.939 198.296 479.83C198.187 479.721 198.126 479.574 198.126 479.42C198.126 479.266 198.187 479.119 198.296 479.01C198.404 478.901 198.552 478.84 198.706 478.84H419.664C419.817 478.84 419.965 478.901 420.074 479.01C420.182 479.119 420.244 479.266 420.244 479.42C420.244 479.574 420.182 479.721 420.074 479.83C419.965 479.939 419.817 480 419.664 480Z" fill="#3F3D56"/>
<path d="M696.938 293.259C715.835 293.259 731.154 277.939 731.154 259.042C731.154 240.145 715.835 224.826 696.938 224.826C678.04 224.826 662.721 240.145 662.721 259.042C662.721 277.939 678.04 293.259 696.938 293.259Z" fill="#E6E6E6"/>
<path d="M700.201 283.43C698.807 283.391 697.073 283.342 695.737 282.367C695.34 282.064 695.013 281.679 694.78 281.236C694.547 280.794 694.413 280.307 694.388 279.807C694.364 279.453 694.423 279.097 694.559 278.769C694.695 278.44 694.905 278.148 695.173 277.914C695.571 277.617 696.037 277.424 696.528 277.353C697.02 277.282 697.522 277.336 697.987 277.509L696.85 269.195L697.685 269.08L699.022 278.854L698.325 278.534C697.516 278.164 696.406 277.975 695.717 278.558C695.547 278.71 695.415 278.899 695.331 279.111C695.247 279.322 695.213 279.551 695.231 279.778C695.251 280.149 695.352 280.512 695.525 280.841C695.698 281.171 695.94 281.459 696.234 281.686C697.274 282.446 698.656 282.544 700.224 282.588L700.201 283.43Z" fill="#3F3D56"/>
<path d="M692.72 269.912H688.18V270.755H692.72V269.912Z" fill="#3F3D56"/>
<path d="M707.05 269.912H702.51V270.755H707.05V269.912Z" fill="#3F3D56"/>
<path d="M680.292 258.271C676.636 257.854 673.804 254.352 673.493 250.797C673.123 246.569 675.586 242.553 678.964 240.18C682.497 237.699 686.899 236.663 691.158 236.435C699.465 236.021 707.63 238.712 714.064 243.985C717.255 246.635 720.236 250.011 721.365 254.09C722.346 257.631 721.548 261.643 718.7 264.124C717.995 264.732 717.172 265.187 716.283 265.461C715.393 265.734 714.457 265.821 713.532 265.715C711.322 265.485 709.283 264.323 707.518 263.04C704.084 260.543 701.265 257.065 697.082 255.76C694.014 254.804 690.034 255.646 688.159 258.42C687.734 259.055 687.458 259.778 687.353 260.535C687.314 260.696 687.338 260.867 687.42 261.011C687.502 261.155 687.636 261.263 687.795 261.313C687.956 261.356 688.128 261.334 688.274 261.252C688.42 261.169 688.527 261.032 688.572 260.871C689.064 257.377 693.36 256.074 696.375 256.872C700.77 258.035 703.721 261.957 707.327 264.449C709.194 265.841 711.393 266.719 713.705 266.995C715.71 267.152 717.699 266.541 719.27 265.285C722.351 262.853 723.529 258.668 722.848 254.901C722.059 250.539 719.123 246.8 715.901 243.905C709.37 238.099 700.891 234.966 692.153 235.132C687.697 235.235 683.047 236.155 679.207 238.51C675.483 240.795 672.605 244.617 672.229 249.06C671.898 252.971 673.996 257.062 677.598 258.775C678.447 259.178 679.358 259.435 680.292 259.536C681.099 259.628 681.092 258.363 680.292 258.271L680.292 258.271Z" fill="#3F3D56"/>
</g>
<defs>
<clipPath id="clip0_81_412">
<rect width="546.154" height="399" fill="white" transform="translate(185 81)"/>
</clipPath>
</defs>
</svg>
